<svg width="971" height="291" viewBox="0 0 971 291" fill="none" xmlns="http://www.w3.org/2000/svg">
<path d="M371 88.2277H411V248.228H451V48.2277H411C389 48.2277 371 66.2277 371 88.2277Z" fill="white"/>
<path d="M491 128.228V248.228H531V168.228C531 146.228 513 128.228 491 128.228Z" fill="white"/>
<path d="M651 128.228H571V248.228H611V168.228H651V208.228C651 230.228 669 248.228 691 248.228V168.228C691 146.228 673 128.228 651 128.228Z" fill="white"/>
<path d="M931 128.228H891V88.2277C891 66.2277 873 48.2277 851 48.2277V208.228H771V168.228H811V128.228H771C749 128.228 731 146.228 731 168.228V208.228C731 230.228 749 248.228 771 248.228H891V168.228H931V208.228C931 230.228 949 248.228 971 248.228V168.228C971 146.228 953 128.228 931 128.228Z" fill="white"/>
<path d="M491 48.2277V88.2277H531C531 66.2277 513 48.2277 491 48.2277Z" fill="white"/>
<path d="M231.917 30.3477C231.917 30.3477 244.641 30.8908 257.831 32.3649C228.038 8.93416 199.797 2.10664 176.909 2.10664C145.332 2.10664 123.996 15.0634 122.755 15.8393L132.686 0.0894178C132.686 0.0894178 92.9619 -3.71226 78.9965 38.2614C75.4275 29.3391 72.0913 16.3824 72.0913 16.3824C72.0913 16.3824 51.4536 34.4597 61.1518 64.4853C37.4882 55.8733 3.66101 43.8476 2.41964 43.6148C0.635181 43.3821 0.0920827 44.1579 0.0920827 44.1579C0.0920827 44.1579 -0.451016 44.9338 1.10069 46.1751C3.89377 48.5027 57.3501 87.9161 68.9879 95.5194C66.4276 104.674 66.4276 109.019 68.9879 113.364C72.5568 119.183 72.7896 122.286 72.3241 126.631C71.781 130.976 67.2034 168.372 66.1948 172.95C65.1862 177.527 54.4794 193.82 55.0225 198.63C55.5656 203.441 62.1604 224.078 67.9793 226.328C72.3241 227.88 82.9533 231.139 90.0912 231.139C92.6515 231.139 94.9015 230.596 95.9101 229.587C100.255 225.785 101.496 225.009 104.522 225.009H105.298C106.539 225.009 108.091 225.242 109.875 225.242C113.91 225.242 119.263 224.466 123.143 220.897C128.729 215.311 138.427 207.63 141.453 204.139C145.254 199.329 147.272 192.656 146.263 186.062C145.487 179.932 148.823 174.579 152.625 169.303C157.435 162.941 166.358 151.458 166.358 151.458C183.892 164.726 194.831 184.82 194.831 207.165C194.831 246.888 160.228 278.931 117.479 278.931C110.884 278.931 104.522 278.155 98.1601 276.604C117.712 283.509 134.315 285.759 147.737 285.759C176.521 285.759 191.728 275.362 191.728 275.362C191.728 275.362 186.375 282.267 177.763 290.104H177.995C225.555 283.509 248.753 244.328 248.753 244.328C248.753 244.328 246.969 257.052 244.719 265.664C308.028 218.104 297.399 158.596 297.089 156.502C297.632 157.277 303.994 164.881 307.253 168.993C317.649 64.1749 231.917 30.3477 231.917 30.3477Z" fill="#1B314F"/>
<path d="M228.891 200.803C229.434 198.786 231.684 197.467 234.245 196.225C236.029 195.217 238.279 193.898 238.59 193.2C239.598 187.381 240.141 181.484 240.141 175.665C240.141 174.424 238.124 172.329 236.34 170.855C234.322 168.838 232.305 166.82 231.995 164.726C230.21 148.2 224.081 132.14 214.15 118.95C214.926 128.105 214.693 139.278 212.133 152.312C230.443 184.588 219.038 225.32 195.375 249.992C211.28 237.734 223.228 220.432 228.891 200.803Z" fill="white"/>
<path d="M137.263 186.294C134.47 175.355 123.531 169.536 119.962 169.769C115.927 170.312 110.263 171.01 108.479 172.329C111.815 167.208 116.393 164.726 120.97 163.407C124.772 152.467 132.918 130.045 134.703 128.571C135.711 127.795 138.272 127.019 142.616 125.778C145.177 125.235 148.746 124.226 149.211 123.761C150.22 122.209 160.384 97.8471 161.159 96.0626C160.927 94.2782 155.806 81.3214 150.453 68.8301C137.496 78.218 123.453 75.7352 123.453 75.7352C123.453 75.7352 133.384 72.9422 143.548 57.8906C153.478 42.9166 144.091 22.2789 144.091 22.2789C144.091 22.2789 109.255 74.6491 104.91 75.7352C100.565 76.7439 97.5394 71.3905 97.5394 71.3905C97.5394 71.3905 88.3843 95.2868 85.824 103.976C83.2637 112.588 86.3671 120.735 88.6171 124.847C91.1774 128.881 96.5308 139.122 89.1602 149.519C90.1688 144.941 85.5913 137.804 82.2551 133.459C81.0137 144.631 77.6776 171.398 76.6689 175.665C76.1258 178.691 74.3414 182.027 71.3155 187.846C69.7638 190.872 66.738 196.225 65.9622 198.786C66.9708 203.363 70.7725 214.303 73.3328 217.639C76.9017 218.88 81.9447 220.199 86.2895 220.975C88.3067 220.975 90.8671 219.966 94.436 216.63C101.031 210.501 105.376 207.242 106.617 200.57C107.858 194.208 107.393 184.277 110.419 181.484C113.212 178.691 119.341 177.45 124.151 178.691C120.349 178.691 116.005 180.476 116.005 180.476C116.005 180.476 123.375 179.234 126.168 184.51C128.961 189.863 126.711 192.889 122.134 195.993C118.332 198.553 107.16 210.268 103.281 215.311H105.608H106.617H108.169H110.962C113.987 215.311 116.082 214.768 117.091 213.76C119.651 211.199 122.91 208.406 126.013 205.613C129.039 202.82 133.384 199.018 134.392 197.699C136.41 194.674 137.729 190.794 137.186 186.76V186.294H137.263ZM124.539 62.7009L141.608 37.4857C141.608 37.4857 143.935 47.6493 138.039 54.5544C130.668 62.9337 124.306 62.7009 124.539 62.7009ZM77.5224 204.915C74.1862 205.148 72.9448 201.113 73.7207 198.786C74.4965 196.768 82.8758 182.027 82.8758 182.027L80.8585 192.191C80.8585 192.191 84.893 191.648 84.893 196.225C84.893 199.794 80.781 204.605 77.5224 204.915ZM104.212 129.579C102.66 135.398 89.7033 132.916 94.5136 114.295C94.5136 114.295 96.8411 123.218 99.0911 122.442C101.419 121.666 127.332 81.0111 127.332 81.0111C127.332 81.0111 123.996 91.7178 121.746 97.0712C130.668 98.8557 133.229 109.252 128.341 114.916C123.53 120.192 111.35 127.795 104.212 129.579Z" fill="white"/>
<path d="M162.479 54.7871C160.694 57.5802 158.91 60.1405 157.125 62.1577C160.927 71.5455 170.858 96.2177 170.858 97.5366C170.858 99.0884 166.047 111.502 165.504 112.045C164.961 112.278 159.142 112.821 156.892 112.821C154.332 118.95 151.772 124.769 151.306 125.545C150.53 126.554 148.28 127.329 143.393 128.571C140.832 129.347 137.031 130.355 136.487 130.898C135.246 132.45 128.341 150.45 123.763 163.174C129.893 162.165 135.246 163.407 136.487 163.95C146.418 145.096 154.332 134.933 156.349 134.933C158.366 134.7 182.573 138.269 191.961 115.614C201.116 93.1919 187.927 74.1835 187.383 73.4076C187.927 73.6404 208.254 83.1058 213.297 113.597C224.78 128.105 232.15 145.64 234.167 164.26C234.167 165.501 236.185 167.286 237.504 168.838C239.831 171.165 242.081 173.415 242.081 175.743C242.081 181.872 241.538 187.924 240.529 193.82C239.986 195.837 237.504 197.389 234.943 198.63C233.392 199.639 231.142 200.958 230.909 201.656C225.323 221.751 212.599 239.595 196.073 252.319C231.142 235.561 255.348 199.639 255.348 158.441C255.348 104.675 214.616 60.3733 162.479 54.7871Z" fill="white"/>
<path d="M122.522 188.312C122.522 184.743 117.712 183.967 115.617 184.51C113.6 185.053 113.057 188.312 112.824 190.096C112.591 191.881 112.824 197.467 110.496 200.803C111.039 200.26 114.531 196.458 116.315 194.674C118.953 192.424 122.522 191.648 122.522 188.312Z" fill="white"/>
<path d="M81.324 87.3728C83.1085 84.0367 81.5568 81.7867 80.0826 80.4678C79.8499 80.235 79.5395 79.9247 79.5395 79.9247C76.5137 78.3729 57.4277 71.3126 38.5745 64.6403C55.1001 75.5798 73.4103 86.2867 76.5137 87.7608C78.7637 88.847 80.3154 89.1573 81.324 87.3728Z" fill="white"/>
<path d="M153.401 75.7351C152.47 73.4851 151.461 71.1575 150.452 68.83C137.806 77.985 124.229 75.8126 123.53 75.7351C124.229 75.8126 137.728 80.0798 153.401 75.7351Z" fill="#94A6C3"/>
<path d="M179.935 58.2009C174.271 56.5716 168.452 55.4078 162.478 54.7871C160.694 57.5802 158.909 60.1405 157.125 62.1577C158.211 64.7956 159.763 68.5973 161.392 72.7869C167.677 69.7611 174.116 65.1835 179.935 58.2009Z" fill="#94A6C3"/>
<path d="M137.263 186.294C134.47 175.355 123.531 169.536 119.962 169.769C115.927 170.312 110.264 171.01 108.479 172.329C111.815 167.208 116.393 164.726 120.97 163.407C122.289 159.682 124.074 154.639 125.936 149.519C121.591 151.846 106.229 159.993 104.91 160.846C103.358 161.855 98.005 172.562 93.9706 183.734C91.643 176.596 86.6 172.251 86.3672 172.019C86.6 173.26 91.9534 194.441 90.1689 200.803C88.3844 207.397 77.2122 213.294 77.2122 213.294L94.0482 217.018C94.2033 216.863 94.3585 216.708 94.5137 216.553C101.108 210.423 105.453 207.165 106.695 200.492C107.936 194.13 107.47 184.199 110.496 181.406C113.289 178.613 119.419 177.372 124.229 178.613C122.832 178.613 121.436 178.846 120.117 179.156C124.462 179.234 130.203 180.863 130.048 189.553C130.048 196.148 122.677 196.691 115.307 202.82C113.832 204.061 112.203 205.458 110.574 207.01C107.626 210.191 104.91 213.294 103.358 215.311H110.962C113.988 215.311 116.082 214.768 117.091 213.759C119.651 211.199 122.91 208.406 126.013 205.613C129.039 202.82 133.384 199.018 134.393 197.699C136.41 194.673 137.729 190.794 137.186 186.76V186.294H137.263Z" fill="#94A6C3"/>
<path d="M158.366 128.338C149.444 128.338 137.496 134.157 137.496 134.157L125.781 162.863C130.979 162.398 135.324 163.407 136.487 163.872C146.418 145.019 154.332 134.855 156.349 134.855C158.366 134.622 182.573 138.191 191.961 115.536C201.116 93.1142 187.926 74.1058 187.383 73.33C198.09 108.476 174.427 128.028 158.366 128.338Z" fill="#94A6C3"/>
<path d="M228.891 200.803C229.434 198.786 231.684 197.467 234.245 196.225C236.029 195.217 238.279 193.898 238.59 193.2C239.598 187.381 240.141 181.484 240.141 175.665C240.141 174.424 238.124 172.329 236.34 170.855C234.322 168.838 232.305 166.743 231.995 164.726C230.21 148.2 224.081 132.14 214.15 118.95C214.926 128.105 214.693 139.278 212.133 152.234C230.443 184.51 219.038 225.242 195.375 249.914C211.28 237.734 223.228 220.432 228.891 200.803Z" fill="#94A6C3"/>
<path d="M252.477 153.01C243.4 101.649 191.418 75.1921 187.461 73.4076C189.09 74.1834 207.556 83.5713 212.987 111.735C225.633 126.476 233.547 144.941 235.719 164.415C235.719 165.657 237.503 167.441 239.288 168.993C241.616 171.32 243.865 173.57 243.865 175.898C243.865 182.027 243.322 188.079 242.314 193.975C241.771 195.992 239.288 197.311 236.728 198.786C235.176 199.794 232.926 201.113 232.693 201.811C227.495 220.199 216.633 236.57 202.202 248.983C201.038 249.992 199.875 250.923 198.633 251.932C226.021 236.414 245.34 212.828 251.624 185.984C254.029 175.355 254.495 164.26 252.477 153.01Z" fill="#94A6C3"/>
<path d="M106.229 124.769L119.496 102.114C119.496 102.114 127.099 105.916 123.298 112.045C118.41 119.183 106.229 124.769 106.229 124.769Z" fill="#FFD923"/>
<path d="M256.822 121.976C258.063 124.304 289.408 182.027 256.589 245.104C261.71 239.983 265.977 234.707 269.856 229.587C291.736 199.096 288.71 157.122 263.494 129.114C261.4 126.786 259.15 124.226 256.822 121.976Z" fill="#D82122"/>
<path d="M300.347 148.433C299.804 115.847 288.865 87.9161 267.761 65.494C267.529 65.2612 267.529 65.2612 267.218 64.9509C248.675 45.3993 221.443 36.1667 194.443 40.046C184.279 41.2873 174.116 43.3821 166.202 45.8649C164.961 46.0976 163.642 46.408 162.4 46.8735H162.943C164.961 46.6407 202.124 44.8562 236.727 67.7439C272.649 91.4075 288.865 117.631 300.347 148.433Z" fill="#D82122"/>
<path d="M228.581 22.5116C211.823 14.1323 194.211 9.78757 176.677 9.55481C170.082 9.55481 163.953 10.0979 158.366 11.1065C138.505 14.6754 122.212 28.9511 116.625 47.9596C116.625 47.9596 120.66 41.5976 130.358 35.0028C133.927 30.1925 139.513 22.5116 144.867 16.1496C146.418 19.4857 148.203 23.5202 148.668 25.5374C166.28 18.9426 190.72 15.3737 228.581 22.5116Z" fill="#D82122"/>
<path d="M69.0658 33.6838C68.5227 35.7011 58.6693 70.3041 88.3846 71.3127C71.1606 60.9163 69.0658 33.9166 69.0658 33.6838Z" fill="#D82122"/>
<path d="M117.712 9.01196C115.927 9.78782 77.5224 22.2791 99.4015 55.5632C99.4015 55.5632 94.8239 22.7446 117.712 9.01196Z" fill="#D82122"/>
</svg>
