<?xml version="1.0" encoding="UTF-8" standalone="no"?>
<!-- Created with Inkscape (http://www.inkscape.org/) -->

<svg
   width="3650mm"
   height="890mm"
   viewBox="3 0 574.80314 140.15748"
   version="1.1"
   id="svg1"
   xml:space="preserve"
   sodipodi:docname="backpackink2.svg"
   inkscape:version="1.3.2 (091e20e, 2023-11-25)"
   xmlns:inkscape="http://www.inkscape.org/namespaces/inkscape"
   xmlns:sodipodi="http://sodipodi.sourceforge.net/DTD/sodipodi-0.dtd"
   xmlns="http://www.w3.org/2000/svg"
   xmlns:svg="http://www.w3.org/2000/svg"><sodipodi:namedview
     id="namedview1"
     pagecolor="#ffffff"
     bordercolor="#000000"
     borderopacity="0.25"
     inkscape:showpageshadow="true"
     inkscape:pageopacity="0.0"
     inkscape:pagecheckerboard="true"
     inkscape:deskcolor="#d1d1d1"
     inkscape:document-units="mm"
     inkscape:zoom="0.054450412"
     inkscape:cx="5720.8016"
     inkscape:cy="-2864.9921"
     inkscape:window-width="1920"
     inkscape:window-height="959"
     inkscape:window-x="0"
     inkscape:window-y="25"
     inkscape:window-maximized="0"
     inkscape:current-layer="layer1"
     showguides="true" /><defs
     id="defs1"><clipPath
       id="clip0_1_803"><rect
         width="11"
         height="16"
         fill="#ffffff"
         id="rect1"
         x="0"
         y="0" /></clipPath></defs><g
     inkscape:label="Layer 1"
     inkscape:groupmode="layer"
     id="layer1"><g
       style="fill:none"
       id="g1"
       transform="matrix(7.7915557,0,0,7.9542105,10.781567,7.8760124)"><path
         fill-rule="evenodd"
         clip-rule="evenodd"
         d="m 6.54201,1.25805 c 0.58155,0 1.12704,0.07796 1.63209,0.22254 C 7.67963,0.328169 6.65297,0 5.51038,0 4.36555,0 3.3371,0.329459 2.84375,1.48738 3.3451,1.33771 3.88824,1.25805 4.4678,1.25805 Z M 4.33478,2.41504 C 1.57335,2.41504 0,4.58743 0,7.2672 V 10.02 c 0,0.268 0.223858,0.48 0.5,0.48 h 10 c 0.2761,0 0.5,-0.212 0.5,-0.48 V 7.2672 C 11,4.58743 9.17041,2.41504 6.40899,2.41504 Z m 1.16131,4.87598 c 0.9665,0 1.75,-0.78351 1.75,-1.75 0,-0.9665 -0.7835,-1.75 -1.75,-1.75 -0.96649,0 -1.75,0.7835 -1.75,1.75 0,0.96649 0.78351,1.75 1.75,1.75 z M 0,12.118 c 0,-0.2679 0.223858,-0.4852 0.5,-0.4852 h 10 c 0.2761,0 0.5,0.2173 0.5,0.4852 v 2.9113 c 0,0.536 -0.4477,0.9705 -1,0.9705 H 1 c -0.552285,0 -1,-0.4345 -1,-0.9705 z"
         fill="#e33e3f"
         id="path1"
         clip-path="url(#clipPath2)" /></g><g
       style="fill:none"
       id="g2"
       transform="matrix(3.8957778,0,0,3.9771051,116.61486,34.916014)"><path
         d="M 1.18579,18.5463 V 0.878334 h 7.47036 c 1.21739,0 2.26085,0.205536 3.13045,0.616596 0.8695,0.41107 1.5336,1.00396 1.9921,1.77866 0.4585,0.75889 0.6877,1.6838 0.6877,2.77471 0,0.7747 -0.2134,1.51778 -0.6403,2.22924 -0.4269,0.69566 -1.1304,1.28064 -2.1107,1.75496 V 8.23011 c 0.9328,0.36364 1.6522,0.79842 2.1581,1.30435 0.506,0.50594 0.8538,1.05924 1.0435,1.66004 0.1897,0.585 0.2846,1.2016 0.2846,1.8498 0,1.7392 -0.5771,3.091 -1.7312,4.0554 -1.1542,0.9644 -2.7589,1.4466 -4.81425,1.4466 z m 3.67589,-3.2016 h 4.22134 c 0.74309,0 1.33598,-0.2134 1.77868,-0.6403 0.4427,-0.4269 0.664,-0.9802 0.664,-1.6601 0,-0.6956 -0.2213,-1.2569 -0.664,-1.6838 C 10.419,10.9337 9.82611,10.7202 9.08302,10.7202 H 4.86168 Z m 0,-7.82605 h 4.05534 c 0.56917,0 1.01976,-0.1581 1.35178,-0.47431 0.3478,-0.33201 0.5217,-0.7668 0.5217,-1.30435 0,-0.53754 -0.1739,-0.96442 -0.5217,-1.28063 C 9.93678,4.12735 9.48619,3.96134 8.91702,3.96134 H 4.86168 Z"
         fill="#ffffff"
         id="path1-8" /><path
         d="m 21.3067,18.8309 c -0.9329,0 -1.7392,-0.1502 -2.419,-0.4506 -0.6799,-0.3004 -1.2016,-0.7273 -1.5652,-1.2806 -0.3637,-0.5692 -0.5455,-1.2411 -0.5455,-2.0158 0,-0.7273 0.166,-1.3676 0.498,-1.921 0.332,-0.5692 0.838,-1.0435 1.5178,-1.4229 0.6957,-0.3795 1.5573,-0.6482 2.585,-0.8063 l 3.9605,-0.6403 v 2.6086 l -3.3202,0.5929 c -0.5059,0.0949 -0.8933,0.2609 -1.162,0.4981 -0.2688,0.2213 -0.4032,0.5454 -0.4032,0.9723 0,0.3952 0.1502,0.7035 0.4506,0.9249 0.3004,0.2213 0.6719,0.332 1.1146,0.332 0.585,0 1.0988,-0.1265 1.5415,-0.3794 0.4427,-0.253 0.7826,-0.5929 1.0198,-1.0198 0.2529,-0.4427 0.3794,-0.9249 0.3794,-1.4466 v -3.3676 c 0,-0.49015 -0.1976,-0.90122 -0.5929,-1.23323 -0.3794,-0.33202 -0.9011,-0.49803 -1.5652,-0.49803 -0.6324,0 -1.1937,0.17392 -1.6838,0.52174 -0.4743,0.34783 -0.8221,0.80633 -1.0434,1.37552 L 17.2276,8.823 c 0.253,-0.72727 0.6561,-1.35178 1.2095,-1.87352 0.5533,-0.52174 1.2174,-0.9249 1.9921,-1.20949 0.7747,-0.28458 1.6205,-0.42687 2.5375,-0.42687 1.0909,0 2.0554,0.19763 2.8933,0.59288 0.838,0.39526 1.4862,0.94862 1.9447,1.66008 0.4743,0.69565 0.7114,1.50988 0.7114,2.44272 v 8.5375 H 25.196 v -2.0869 l 0.8063,-0.1423 c -0.3794,0.5691 -0.7984,1.0434 -1.2569,1.4229 -0.4585,0.3636 -0.9723,0.6324 -1.5415,0.8063 -0.5692,0.1897 -1.2016,0.2846 -1.8972,0.2846 z"
         fill="#ffffff"
         id="path2" /><path
         d="m 37.4808,18.8309 c -1.2965,0 -2.4665,-0.2925 -3.5099,-0.8775 -1.0277,-0.6008 -1.8498,-1.415 -2.4664,-2.4427 -0.6008,-1.0276 -0.9012,-2.1818 -0.9012,-3.4624 0,-1.2806 0.3004,-2.42688 0.9012,-3.43874 0.6008,-1.02767 1.4229,-1.83399 2.4664,-2.41897 1.0434,-0.58498 2.2134,-0.87747 3.5099,-0.87747 0.9644,0 1.8577,0.16601 2.6798,0.49802 0.8221,0.33202 1.5257,0.79842 2.1107,1.39921 0.5849,0.58498 1.0039,1.28063 1.2569,2.08696 l -3.083,1.32809 C 40.2238,9.97715 39.8444,9.46331 39.3068,9.08387 38.7851,8.70442 38.1764,8.5147 37.4808,8.5147 c -0.6167,0 -1.17,0.1502 -1.6601,0.45059 -0.4743,0.3004 -0.8538,0.71937 -1.1384,1.25691 -0.2687,0.5376 -0.4031,1.1542 -0.4031,1.8498 0,0.6957 0.1344,1.3123 0.4031,1.8498 0.2846,0.5376 0.6641,0.9565 1.1384,1.2569 0.4901,0.3004 1.0434,0.4506 1.6601,0.4506 0.7114,0 1.328,-0.1897 1.8498,-0.5691 0.5217,-0.3795 0.8932,-0.8933 1.1146,-1.5415 l 3.083,1.3517 C 43.291,15.6293 42.88,16.3092 42.295,16.91 c -0.585,0.6007 -1.2886,1.0751 -2.1107,1.4229 -0.8221,0.332 -1.7233,0.498 -2.7035,0.498 z"
         fill="#ffffff"
         id="path3" /><path
         d="M 45.6229,18.5463 V 0.59375 h 3.5573 V 12.0957 l -1.328,-0.4269 5.7154,-6.0711 h 4.3873 l -4.6956,5.2174 4.6719,7.7312 h -4.0316 l -3.9131,-6.5692 2.0633,-0.5217 -3.9605,4.3162 1.0909,-2.0632 v 4.8379 z"
         fill="#ffffff"
         id="path4" /><path
         d="M 59.5187,23.2894 V 5.5977 h 3.3201 V 8.06411 L 62.5305,7.35264 c 0.4269,-0.64822 1.004,-1.14624 1.7312,-1.49407 0.7431,-0.36364 1.589,-0.54545 2.5376,-0.54545 1.2332,0 2.3478,0.30039 3.3439,0.90118 0.996,0.60079 1.7865,1.41502 2.3715,2.44269 0.585,1.01186 0.8775,2.15021 0.8775,3.41501 0,1.249 -0.2925,2.3874 -0.8775,3.415 -0.5692,1.0277 -1.3518,1.8419 -2.3478,2.4427 -0.9961,0.6008 -2.1265,0.9012 -3.3913,0.9012 -0.8854,0 -1.7075,-0.1581 -2.4664,-0.4743 -0.7431,-0.332 -1.3439,-0.8142 -1.8024,-1.4466 l 0.5692,-0.7352 v 7.1146 z m 6.83,-7.6601 c 0.664,0 1.249,-0.1502 1.7549,-0.4506 0.506,-0.3004 0.9012,-0.7193 1.1858,-1.2569 0.2846,-0.5375 0.4269,-1.1541 0.4269,-1.8498 0,-0.6956 -0.1423,-1.3043 -0.4269,-1.8261 C 69.0048,9.70837 68.6096,9.2894 68.1036,8.98901 67.5977,8.6728 67.0127,8.5147 66.3487,8.5147 c -0.6324,0 -1.2016,0.1502 -1.7075,0.45059 -0.4901,0.3004 -0.8775,0.71937 -1.1621,1.25691 -0.2687,0.5376 -0.4031,1.1542 -0.4031,1.8498 0,0.6957 0.1344,1.3123 0.4031,1.8498 0.2846,0.5376 0.672,0.9565 1.1621,1.2569 0.5059,0.3004 1.0751,0.4506 1.7075,0.4506 z"
         fill="#ffffff"
         id="path5" /><path
         d="m 79.4835,18.8309 c -0.9328,0 -1.7391,-0.1502 -2.4189,-0.4506 -0.6799,-0.3004 -1.2016,-0.7273 -1.5653,-1.2806 -0.3636,-0.5692 -0.5454,-1.2411 -0.5454,-2.0158 0,-0.7273 0.166,-1.3676 0.498,-1.921 0.332,-0.5692 0.8379,-1.0435 1.5178,-1.4229 0.6956,-0.3795 1.5573,-0.6482 2.585,-0.8063 l 3.9604,-0.6403 v 2.6086 l -3.3201,0.5929 c -0.5059,0.0949 -0.8933,0.2609 -1.1621,0.4981 -0.2687,0.2213 -0.4031,0.5454 -0.4031,0.9723 0,0.3952 0.1502,0.7035 0.4506,0.9249 0.3004,0.2213 0.6719,0.332 1.1146,0.332 0.585,0 1.0988,-0.1265 1.5415,-0.3794 0.4427,-0.253 0.7826,-0.5929 1.0197,-1.0198 0.253,-0.4427 0.3795,-0.9249 0.3795,-1.4466 v -3.3676 c 0,-0.49015 -0.1976,-0.90122 -0.5929,-1.23323 -0.3794,-0.33202 -0.9012,-0.49803 -1.5652,-0.49803 -0.6324,0 -1.1937,0.17392 -1.6838,0.52174 -0.4743,0.34783 -0.8221,0.80633 -1.0435,1.37552 L 75.4045,8.823 c 0.2529,-0.72727 0.6561,-1.35178 1.2095,-1.87352 0.5533,-0.52174 1.2173,-0.9249 1.992,-1.20949 0.7748,-0.28458 1.6206,-0.42687 2.5376,-0.42687 1.0909,0 2.0553,0.19763 2.8933,0.59288 0.8379,0.39526 1.4861,0.94862 1.9446,1.66008 0.4744,0.69565 0.7115,1.50988 0.7115,2.44272 v 8.5375 h -3.3201 v -2.0869 l 0.8063,-0.1423 c -0.3795,0.5691 -0.7984,1.0434 -1.2569,1.4229 -0.4585,0.3636 -0.9724,0.6324 -1.5415,0.8063 -0.5692,0.1897 -1.2016,0.2846 -1.8973,0.2846 z"
         fill="#ffffff"
         id="path6" /><path
         d="m 95.6576,18.8309 c -1.2964,0 -2.4664,-0.2925 -3.5099,-0.8775 -1.0276,-0.6008 -1.8498,-1.415 -2.4664,-2.4427 -0.6008,-1.0276 -0.9011,-2.1818 -0.9011,-3.4624 0,-1.2806 0.3003,-2.42688 0.9011,-3.43874 0.6008,-1.02767 1.423,-1.83399 2.4664,-2.41897 1.0435,-0.58498 2.2135,-0.87747 3.5099,-0.87747 0.9644,0 1.8577,0.16601 2.6799,0.49802 0.8221,0.33202 1.5257,0.79842 2.1105,1.39921 0.585,0.58498 1.004,1.28063 1.257,2.08696 L 98.622,10.6254 C 98.4007,9.97715 98.0213,9.46331 97.4837,9.08387 96.962,8.70442 96.3533,8.5147 95.6576,8.5147 c -0.6166,0 -1.1699,0.1502 -1.6601,0.45059 -0.4743,0.3004 -0.8537,0.71937 -1.1383,1.25691 -0.2688,0.5376 -0.4032,1.1542 -0.4032,1.8498 0,0.6957 0.1344,1.3123 0.4032,1.8498 0.2846,0.5376 0.664,0.9565 1.1383,1.2569 0.4902,0.3004 1.0435,0.4506 1.6601,0.4506 0.7115,0 1.3281,-0.1897 1.8498,-0.5691 0.5218,-0.3795 0.8933,-0.8933 1.1146,-1.5415 l 3.083,1.3517 c -0.237,0.7589 -0.648,1.4388 -1.233,2.0396 -0.5851,0.6007 -1.2887,1.0751 -2.1108,1.4229 -0.8222,0.332 -1.7233,0.498 -2.7036,0.498 z"
         fill="#ffffff"
         id="path7" /><path
         d="M 103.8,18.5463 V 0.59375 h 3.557 V 12.0957 l -1.328,-0.4269 5.715,-6.0711 h 4.388 l -4.696,5.2174 4.672,7.7312 h -4.032 l -3.913,-6.5692 2.064,-0.5217 -3.961,4.3162 1.091,-2.0632 v 4.8379 z"
         fill="#ffffff"
         id="path8" /></g></g></svg>
