<?xml version="1.0" encoding="UTF-8" standalone="no"?>
<svg
   width="407.39099"
   height="50.000999"
   viewBox="0 0 407.39099 50.000999"
   fill="none"
   version="1.1"
   id="svg26"
   sodipodi:docname="binance.svg"
   inkscape:version="1.2.2 (732a01da63, 2022-12-09)"
   xmlns:inkscape="http://www.inkscape.org/namespaces/inkscape"
   xmlns:sodipodi="http://sodipodi.sourceforge.net/DTD/sodipodi-0.dtd"
   xmlns="http://www.w3.org/2000/svg"
   xmlns:svg="http://www.w3.org/2000/svg">
   <style>
        svg {
            width: 100%;
            height: 100%;
        }
        text {
            text-anchor: start;
        }
    </style>
  <defs
     id="defs30" />
  <sodipodi:namedview
     id="namedview28"
     pagecolor="#505050"
     bordercolor="#ffffff"
     borderopacity="1"
     inkscape:showpageshadow="0"
     inkscape:pageopacity="0"
     inkscape:pagecheckerboard="1"
     inkscape:deskcolor="#505050"
     showgrid="false"
     inkscape:zoom="3.272102"
     inkscape:cx="208.73432"
     inkscape:cy="47.370161"
     inkscape:window-width="2560"
     inkscape:window-height="1494"
     inkscape:window-x="-11"
     inkscape:window-y="-11"
     inkscape:window-maximized="1"
     inkscape:current-layer="svg26" />
  <path
     d="m 15.290359,21.010824 9.7102,-9.7098 9.7154,9.7149 5.6501,-5.6501 L 25.000559,0 9.6402194,15.360724 Z"
     fill="#000000"
     id="path2" />
  <path
     d="m 11.300259,24.999624 -5.6499996,-5.65 L 0,24.999924 l 5.6499794,5.65 z"
     fill="#000000"
     id="path4" />
  <path
     d="m 15.290359,28.990124 9.7102,9.7099 9.715,-9.7146 5.6532,5.6469 -0.0027,0.0032 -15.3655,15.3654 -15.3686296,-15.3682 z"
     fill="#000000"
     id="path6" />
  <path
     d="m 44.351559,30.652524 5.6501,-5.6502 -5.6501,-5.65 -5.6501,5.6503 z"
     fill="#000000"
     id="path8" />
  <path
     d="m 30.731559,24.997524 h 0.0024 l -5.7334,-5.7334 -5.7362,5.7362 0.0079,0.0083 5.7283,5.7282 5.7334,-5.7334 0.0027,-0.0031 z"
     fill="#000000"
     id="path10" />
  <path
     d="m 58.809859,1.2018611 h 22.404987 c 5.560817,0 9.765707,1.4270333 12.615579,4.2812821 2.205366,2.210288 3.307684,4.9500388 3.307684,8.2181578 v 0.138383 c 0,1.380905 -0.170653,2.601368 -0.514147,3.659747 -0.342583,1.060019 -0.800575,2.013927 -1.373066,2.865735 -0.57085,0.852537 -1.234684,1.600603 -1.989314,2.244382 -0.75536,0.645055 -1.566874,1.198037 -2.435821,1.657488 2.794995,1.059837 4.995438,2.497627 6.599688,4.31647 1.60352,1.819572 2.406284,4.340354 2.406284,7.562347 v 0.137653 c 0,2.21047 -0.424811,4.143629 -1.275159,5.801847 -0.85035,1.656758 -2.068625,3.038576 -3.654825,4.143811 -1.5862,1.105235 -3.493468,1.933158 -5.722719,2.48614 -2.229249,0.552254 -4.699529,0.828106 -7.410472,0.828106 H 58.809859 Z M 78.97484,20.745307 c 2.34867,0 4.213641,-0.401655 5.593817,-1.208065 1.381088,-0.805863 2.071541,-2.106911 2.071541,-3.90187 v -0.1382 c 0,-1.610814 -0.599109,-2.842034 -1.795688,-3.69457 -1.19749,-0.851626 -2.924078,-1.277894 -5.179217,-1.277894 H 69.168112 v 10.220599 z m 2.831824,19.475986 c 2.348122,0 4.18848,-0.424809 5.524716,-1.277347 1.334961,-0.851807 2.003171,-2.176011 2.003171,-3.9717 v -0.137469 c 0,-1.611362 -0.622082,-2.888709 -1.864788,-3.833501 -1.243618,-0.942421 -3.245876,-1.414818 -6.008599,-1.414818 H 69.168112 v 10.635565 z"
     fill="#000000"
     id="path12"
     style="stroke-width:1.82321" />
  <path
     d="m 113.17514,1.2018611 h 10.63629 V 49.54487 h -10.63629 z"
     fill="#000000"
     id="path14"
     style="stroke-width:1.82321" />
  <path
     d="m 139.92121,1.2018611 h 9.80527 L 172.37815,30.967547 V 1.2018611 h 10.4981 V 49.54487 h -9.04681 L 150.41748,18.812877 V 49.54487 h -10.49627 z"
     fill="#000000"
     id="path16"
     style="stroke-width:1.82321" />
  <path
     d="m 215.07429,0.85690813 h 9.80709 L 245.60044,49.544687 h -11.11981 l -4.41948,-10.841952 h -20.44193 l -4.41949,10.841952 H 194.35522 Z M 226.26338,29.309329 219.83836,13.63293 213.41881,29.309329 Z"
     fill="#000000"
     id="path18"
     style="stroke-width:1.82321" />
  <path
     d="m 257.08125,1.2018611 h 9.80709 L 289.54001,30.967547 V 1.2018611 h 10.49627 V 49.54487 H 290.9913 L 267.57752,18.812877 V 49.54487 h -10.49627 z"
     fill="#000000"
     id="path20"
     style="stroke-width:1.82321" />
  <path
     d="m 338.31293,50.373157 c -3.54615,0 -6.83707,-0.645237 -9.87637,-1.933341 -3.03931,-1.288104 -5.66292,-3.050062 -7.87266,-5.283505 -2.20974,-2.232714 -3.93815,-4.868723 -5.17977,-7.907299 -1.24344,-3.039124 -1.86332,-6.285 -1.86332,-9.738358 v -0.137471 c 0,-3.453176 0.61988,-6.686837 1.86332,-9.702988 1.24343,-3.01542 2.97003,-5.662917 5.17977,-7.9417579 2.20974,-2.2790234 4.85705,-4.0754408 7.94195,-5.3872467 3.08305,-1.3119881 6.49247,-1.96779986 10.22095,-1.96779986 2.25533,0 4.31556,0.18505669 6.17889,0.55225294 1.86515,0.36938412 3.5571,0.87478032 5.07766,1.51910582 1.52057,0.6452371 2.92263,1.4279448 4.21346,2.3481233 1.28719,0.9216371 2.48505,1.9338881 3.58992,3.0391233 l -6.76596,7.8035581 c -1.89068,-1.702704 -3.81236,-3.039123 -5.76866,-4.005429 -1.95632,-0.966306 -4.15512,-1.450188 -6.59459,-1.450188 -2.0256,0 -3.90351,0.391809 -5.62828,1.174518 -1.72658,0.782525 -3.21068,1.864059 -4.45594,3.245146 -1.24162,1.380906 -2.20792,2.98151 -2.90075,4.799623 -0.68917,1.819391 -1.03375,3.764217 -1.03375,5.835758 v 0.137471 c 0,2.071542 0.34458,4.029314 1.03375,5.869671 0.69283,1.842544 1.64638,3.453176 2.86793,4.834264 1.21974,1.380905 2.69289,2.475384 4.41948,3.281065 1.72659,0.806409 3.62638,1.208246 5.69756,1.208246 2.764,0 5.09773,-0.506125 7.00845,-1.519287 1.91073,-1.011704 3.81052,-2.39334 5.69756,-4.14363 l 6.76961,6.837253 c -1.24344,1.33569 -2.53427,2.532998 -3.86704,3.590829 -1.33643,1.059836 -2.79864,1.968529 -4.38666,2.728811 -1.58803,0.758824 -3.32738,1.33569 -5.21442,1.725859 -1.88885,0.39108 -4.00561,0.587623 -6.35209,0.587623 z"
     fill="#000000"
     id="path22"
     style="stroke-width:1.82321" />
  <path
     d="m 370.64954,1.2018611 h 36.39509 v 9.4617749 h -25.897 v 9.80673 h 22.79023 v 9.461046 h -22.79023 v 10.152229 h 26.24341 v 9.461229 h -36.7415 z"
     fill="#000000"
     id="path24"
     style="stroke-width:1.82321" />
</svg>
