<svg width="250" height="51" viewBox="0 0 250 51" fill="none" xmlns="http://www.w3.org/2000/svg">
<path d="M15.2845 21.316L24.9947 11.6062L34.7101 21.3211L40.3602 15.671L24.9947 0.305176L9.63436 15.6659L15.2845 21.316Z" fill="black"/>
<path d="M11.2944 25.3048L5.6444 19.6548L-0.00585938 25.3051L5.64412 30.9551L11.2944 25.3048Z" fill="black"/>
<path d="M15.2845 29.2953L24.9947 39.0052L34.7097 29.2906L40.3629 34.9375L40.3602 34.9407L24.9947 50.3061L9.62607 34.9379L15.2845 29.2953Z" fill="black"/>
<path d="M44.3457 30.9577L49.9958 25.3075L44.3457 19.6575L38.6956 25.3078L44.3457 30.9577Z" fill="black"/>
<path d="M30.7257 25.3027H30.7281L24.9947 19.5693L19.2585 25.3055L19.2664 25.3138L24.9947 31.042L30.7281 25.3086L30.7308 25.3055L30.7257 25.3027Z" fill="black"/>
<path d="M58.804 12.4209H71.0927C74.1427 12.4209 76.449 13.2036 78.0121 14.7691C79.2217 15.9814 79.8263 17.4841 79.8263 19.2766V19.3525C79.8263 20.1099 79.7327 20.7793 79.5443 21.3598C79.3564 21.9412 79.1052 22.4644 78.7912 22.9316C78.4781 23.3992 78.114 23.8095 77.7001 24.1626C77.2858 24.5164 76.8407 24.8197 76.3641 25.0717C77.8971 25.653 79.104 26.4416 79.9839 27.4392C80.8634 28.4372 81.3037 29.8198 81.3037 31.587V31.6625C81.3037 32.8749 81.0707 33.9352 80.6043 34.8447C80.1379 35.7534 79.4697 36.5113 78.5997 37.1175C77.7297 37.7237 76.6836 38.1778 75.4609 38.4811C74.2382 38.784 72.8833 38.9353 71.3964 38.9353H58.804V12.4209ZM69.8641 23.1401C71.1523 23.1401 72.1752 22.9198 72.9322 22.4775C73.6897 22.0355 74.0684 21.3219 74.0684 20.3374V20.2616C74.0684 19.3781 73.7398 18.7028 73.0835 18.2352C72.4267 17.7681 71.4797 17.5343 70.2428 17.5343H64.4853V23.1401H69.8641ZM71.4173 33.8223C72.7052 33.8223 73.7146 33.5893 74.4475 33.1217C75.1797 32.6545 75.5462 31.9282 75.5462 30.9433V30.8679C75.5462 29.9841 75.205 29.2835 74.5234 28.7653C73.8413 28.2484 72.7431 27.9893 71.2278 27.9893H64.4853V33.8227L71.4173 33.8223Z" fill="black"/>
<path d="M88.6223 12.4209H94.4561V38.9361H88.6223V12.4209Z" fill="black"/>
<path d="M103.292 12.4209H108.67L121.094 28.7468V12.4209H126.852V38.9361H121.89L109.049 22.0802V38.9361H103.292V12.4209Z" fill="black"/>
<path d="M144.512 12.2317H149.891L161.255 38.936H155.156L152.732 32.9894H141.52L139.096 38.936H133.148L144.512 12.2317ZM150.649 27.8373L147.125 19.2391L143.604 27.8373H150.649Z" fill="black"/>
<path d="M167.552 12.4209H172.931L185.355 28.7468V12.4209H191.112V38.9361H186.151L173.309 22.0802V38.9361H167.552V12.4209Z" fill="black"/>
<path d="M212.106 39.3904C210.161 39.3904 208.356 39.0365 206.689 38.33C205.022 37.6235 203.583 36.6571 202.371 35.4321C201.159 34.2075 200.211 32.7617 199.53 31.0951C198.848 29.4282 198.508 27.6479 198.508 25.7538V25.6784C198.508 23.7844 198.848 22.0108 199.53 20.3565C200.212 18.7026 201.159 17.2505 202.371 16.0006C203.583 14.7506 205.035 13.7653 206.727 13.0458C208.418 12.3262 210.288 11.9665 212.333 11.9665C213.57 11.9665 214.7 12.068 215.722 12.2694C216.745 12.472 217.673 12.7492 218.507 13.1026C219.341 13.4565 220.11 13.8858 220.818 14.3905C221.524 14.896 222.181 15.4512 222.787 16.0574L219.076 20.3375C218.039 19.4036 216.985 18.6706 215.912 18.1406C214.839 17.6106 213.633 17.3452 212.295 17.3452C211.184 17.3452 210.154 17.5601 209.208 17.9894C208.261 18.4186 207.447 19.0118 206.764 19.7693C206.083 20.5267 205.553 21.4046 205.173 22.4018C204.795 23.3997 204.606 24.4664 204.606 25.6026V25.678C204.606 26.8142 204.795 27.888 205.173 28.8974C205.553 29.908 206.076 30.7914 206.746 31.5489C207.415 32.3063 208.223 32.9066 209.17 33.3485C210.117 33.7908 211.159 34.0112 212.295 34.0112C213.811 34.0112 215.091 33.7336 216.139 33.1779C217.187 32.623 218.229 31.8652 219.264 30.9052L222.977 34.6553C222.295 35.3879 221.587 36.0446 220.856 36.6248C220.123 37.2061 219.321 37.7045 218.45 38.1215C217.579 38.5377 216.625 38.8541 215.59 39.0681C214.554 39.2826 213.393 39.3904 212.106 39.3904Z" fill="black"/>
<path d="M229.842 12.4209H249.804V17.6105H235.6V22.9893H248.1V28.1785H235.6V33.7468H249.994V38.9361H229.842V12.4209Z" fill="black"/>
</svg>
