<?xml version="1.0" encoding="UTF-8" standalone="no"?>
<svg
   version="1.1"
   width="32"
   height="32"
   viewBox="0 0 24 24"
   class="octicon octicon-x-circle"
   aria-hidden="true"
   fill="currentColor"
   id="svg266"
   sodipodi:docname="close_icon.svg"
   inkscape:version="1.2.2 (732a01da63, 2022-12-09)"
   xmlns:inkscape="http://www.inkscape.org/namespaces/inkscape"
   xmlns:sodipodi="http://sodipodi.sourceforge.net/DTD/sodipodi-0.dtd"
   xmlns="http://www.w3.org/2000/svg"
   xmlns:svg="http://www.w3.org/2000/svg">
  <defs
     id="defs270" />
  <sodipodi:namedview
     id="namedview268"
     pagecolor="#505050"
     bordercolor="#ffffff"
     borderopacity="1"
     inkscape:showpageshadow="0"
     inkscape:pageopacity="0"
     inkscape:pagecheckerboard="1"
     inkscape:deskcolor="#505050"
     showgrid="false"
     inkscape:zoom="41.7193"
     inkscape:cx="21.285113"
     inkscape:cy="15.891925"
     inkscape:window-width="2560"
     inkscape:window-height="1494"
     inkscape:window-x="-11"
     inkscape:window-y="-11"
     inkscape:window-maximized="1"
     inkscape:current-layer="svg266" />
  <path
     d="M9.036 7.976a.75.75 0 00-1.06 1.06L10.939 12l-2.963 2.963a.75.75 0 101.06 1.06L12 13.06l2.963 2.964a.75.75 0 001.061-1.06L13.061 12l2.963-2.964a.75.75 0 10-1.06-1.06L12 10.939 9.036 7.976z"
     id="path262"
     style="fill:#009af7;fill-opacity:1;stroke-width:38.24025;stroke-dasharray:none" />
  <path
     fill-rule="evenodd"
     d="M 12,1 C 5.925,1 1,5.925 1,12 1,18.075 5.925,23 12,23 18.075,23 23,18.075 23,12 23,5.925 18.075,1 12,1 Z M 2.87475,12 c 0,-5.2467087 3.878545,-9.12525 9.12525,-9.12525 5.246705,0 9.12525,3.8785413 9.12525,9.12525 0,5.246709 -3.878545,9.12525 -9.12525,9.12525 -5.246705,0 -9.12525,-3.878541 -9.12525,-9.12525 z"
     id="path264"
     style="fill:#009af7;fill-opacity:1;stroke-width:0.99975;stroke-dasharray:none"
     sodipodi:nodetypes="ssssssssss" />
</svg>
