<?xml version="1.0" encoding="UTF-8" standalone="no"?>
<!-- Created with Inkscape (http://www.inkscape.org/) -->

<svg
   width="269.29001mm"
   height="36.25mm"
   viewBox="0 0 269.29001 36.25"
   version="1.1"
   id="svg8"
   inkscape:version="1.2.2 (732a01da63, 2022-12-09)"
   sodipodi:docname="crypto-com.svg"
   xmlns:inkscape="http://www.inkscape.org/namespaces/inkscape"
   xmlns:sodipodi="http://sodipodi.sourceforge.net/DTD/sodipodi-0.dtd"
   xmlns:xlink="http://www.w3.org/1999/xlink"
   xmlns="http://www.w3.org/2000/svg"
   xmlns:svg="http://www.w3.org/2000/svg"
   xmlns:rdf="http://www.w3.org/1999/02/22-rdf-syntax-ns#"
   xmlns:cc="http://creativecommons.org/ns#"
   xmlns:dc="http://purl.org/dc/elements/1.1/">
  <defs
     id="defs2">
    <path
       d="m 70.1,264.3 v 24.9 h 19.6 l 4.7,20 H 70.1 v 3 h 12.8 l -4.2,11.2 1.2,12.5 h -9.8 v 43.6 L 120,350.7 V 293.1 Z M 83,323.5 v 0 l 11.5,-7.5 13.1,9.9 -17.8,31.1 h -7.1 l -8.5,-7.8 v -4 l 8.8,-8.4 z"
       id="SVGID_1_"
       inkscape:connector-curvature="0" />
    <path
       d="m 70.1,264.3 -49.9,28.8 v 57.6 l 49.9,28.8 V 336 h -9.7 l 1.3,-12.5 -4.3,-11.2 h 12.7 v -3 H 45.9 l 4.6,-20 h 19.7 v -25 z m -37.5,61.6 v 0 l 13.2,-9.8 11.6,7.4 v 13.3 l 8.8,8.4 v 4 l -8.5,7.9 h -7.2 z"
       id="SVGID_3_"
       inkscape:connector-curvature="0" />
  </defs>
  <sodipodi:namedview
     id="base"
     pagecolor="#ffffff"
     bordercolor="#666666"
     borderopacity="1.0"
     inkscape:pageopacity="0.0"
     inkscape:pageshadow="2"
     inkscape:zoom="1.1894531"
     inkscape:cx="661.64862"
     inkscape:cy="117.70115"
     inkscape:document-units="mm"
     inkscape:current-layer="g903"
     showgrid="false"
     fit-margin-top="0"
     fit-margin-left="0"
     fit-margin-right="0"
     fit-margin-bottom="0"
     inkscape:window-width="2560"
     inkscape:window-height="1494"
     inkscape:window-x="-11"
     inkscape:window-y="-11"
     inkscape:window-maximized="1"
     inkscape:showpageshadow="0"
     inkscape:pagecheckerboard="1"
     inkscape:deskcolor="#d1d1d1" />
  <metadata
     id="metadata5">
    <rdf:RDF>
      <cc:Work
         rdf:about="">
        <dc:format>image/svg+xml</dc:format>
        <dc:type
           rdf:resource="http://purl.org/dc/dcmitype/StillImage" />
      </cc:Work>
    </rdf:RDF>
  </metadata>
  <g
     inkscape:label="Layer 1"
     inkscape:groupmode="layer"
     id="layer1"
     transform="translate(-5.3750828,-113.61004)">
    <g
       id="g903"
       transform="matrix(0.31794097,0,0,0.31465205,-1.0473248,30.447499)">
      <path
         id="path817"
         d="m 70.1,264.3 -49.9,28.8 v 57.6 l 49.9,28.8 49.9,-28.8 v -57.6 z m 0,0 -49.9,28.8 v 57.6 l 49.9,28.8 49.9,-28.8 v -57.6 z"
         class="st0"
         inkscape:connector-curvature="0"
         style="fill:#000000;fill-opacity:0" />
      <path
         id="path819"
         d="m 89.8,357 h -7.1 l -8.5,-7.8 v -4 l 8.8,-8.4 v -13.3 l 11.5,-7.5 13.1,9.9 z m -29.4,-21 1.3,-12.5 -4.3,-11.2 h 25.4 l -4.2,11.2 1.2,12.5 H 70 Z m 5.8,13.2 -8.5,7.9 h -7.2 l -17.9,-31.2 13.2,-9.8 11.6,7.4 v 13.3 l 8.8,8.4 z m -15.8,-60 h 39.3 l 4.7,20 H 45.8 Z m 19.7,-24.9 -49.9,28.8 v 57.6 l 49.9,28.8 49.9,-28.8 v -57.6 z"
         class="st1"
         inkscape:connector-curvature="0"
         style="fill:#ffffff;fill-opacity:1" />
      <g
         id="g831">
        <g
           id="g829">
          <g
             id="g827">
            <defs
               id="defs822">
              <path
                 d="m 70.1,264.3 v 24.9 h 19.6 l 4.7,20 H 70.1 v 3 h 12.8 l -4.2,11.2 1.2,12.5 h -9.8 v 43.6 L 120,350.7 V 293.1 Z M 83,323.5 v 0 l 11.5,-7.5 13.1,9.9 -17.8,31.1 h -7.1 l -8.5,-7.8 v -4 l 8.8,-8.4 z"
                 id="path877"
                 inkscape:connector-curvature="0" />
            </defs>
            <clipPath
               id="SVGID_2_">
              <use
                 id="use824"
                 style="overflow:visible"
                 xlink:href="#SVGID_1_"
                 x="0"
                 y="0"
                 width="100%"
                 height="100%" />
            </clipPath>
          </g>
        </g>
      </g>
      <g
         id="g843">
        <g
           id="g841">
          <g
             id="g839">
            <defs
               id="defs834">
              <path
                 d="m 70.1,264.3 -49.9,28.8 v 57.6 l 49.9,28.8 V 336 h -9.7 l 1.3,-12.5 -4.3,-11.2 h 12.7 v -3 H 45.9 l 4.6,-20 h 19.7 v -25 z m -37.5,61.6 v 0 l 13.2,-9.8 11.6,7.4 v 13.3 l 8.8,8.4 v 4 l -8.5,7.9 h -7.2 z"
                 id="path885"
                 inkscape:connector-curvature="0" />
            </defs>
            <clipPath
               id="SVGID_4_">
              <use
                 id="use836"
                 style="overflow:visible"
                 xlink:href="#SVGID_3_"
                 x="0"
                 y="0"
                 width="100%"
                 height="100%" />
            </clipPath>
          </g>
        </g>
      </g>
      <path
         id="path845"
         d="m 188.10852,360.54989 c -20.17958,0 -35.00852,-15.74619 -35.00852,-35.1614 0,-19.41519 14.98181,-35.62001 35.16139,-35.62001 12.84155,0 20.79109,4.73914 27.05898,11.61855 l -9.63116,10.39554 c -4.73914,-5.0449 -9.78403,-8.40816 -17.58069,-8.40816 -11.3128,0 -19.56809,9.78403 -19.56809,21.70833 0,12.23005 8.40817,22.0141 20.33247,22.0141 7.33803,0 12.68867,-3.51615 17.58069,-8.40816 l 9.32541,9.32541 c -6.72652,7.18515 -14.52318,12.5358 -27.67048,12.5358"
         class="st2"
         inkscape:connector-curvature="0"
         style="fill:#ffffff;fill-opacity:1;stroke-width:1.52875" />
      <path
         id="path847"
         d="M 245.284,360.54989 H 229.69068 V 289.92135 H 245.284 v 16.51057 c 4.28052,-10.08979 12.07717,-17.12207 24.00147,-16.51057 v 16.51057 h -0.91725 c -13.60594,0 -23.08422,8.86679 -23.08422,26.90611 z"
         class="st2"
         inkscape:connector-curvature="0"
         style="fill:#ffffff;fill-opacity:1;stroke-width:1.52875" />
      <polygon
         id="polygon849"
         points="282.4,302.2 259.9,361 249.6,361 254.5,348.6 235.2,302.2 246.1,302.2 259.2,336.5 271.8,302.2 "
         class="st2"
         style="fill:#ffffff;fill-opacity:1"
         transform="matrix(1.5287563,0,0,1.5287563,-80.952574,-172.37453)" />
      <path
         id="path851"
         d="m 396.63087,303.22154 c -10.54843,0 -19.72096,8.56103 -19.72096,21.8612 0,13.30019 9.32541,21.86122 19.72096,21.86122 10.70129,0 19.41519,-8.40816 19.41519,-21.86122 0,-13.45305 -8.86678,-21.8612 -19.41519,-21.8612 m 3.51613,57.17547 c -11.15992,0 -18.1922,-5.65639 -22.93134,-11.9243 v 31.03376 h -15.59331 v -89.89086 h 15.59331 v 12.68867 c 5.0449,-7.03228 12.07717,-12.68867 22.93134,-12.68867 16.05194,0 31.64526,12.68867 31.64526,35.31426 0,22.62559 -15.44044,35.46714 -31.64526,35.46714"
         class="st2"
         inkscape:connector-curvature="0"
         style="fill:#ffffff;fill-opacity:1;stroke-width:1.52875" />
      <path
         id="path853"
         d="m 465.88352,304.44454 v 33.32688 c 0,5.96215 3.05751,8.40816 8.40815,8.40816 h 6.11503 v 13.91168 h -10.70129 c -11.3128,0 -19.4152,-5.04489 -19.4152,-19.87383 v -35.77289 h -8.56104 v -13.30018 h 8.56104 v -18.65083 h 15.59331 v 18.65083 h 14.52318 v 13.30018 z"
         class="st2"
         inkscape:connector-curvature="0"
         style="fill:#ffffff;fill-opacity:1;stroke-width:1.52875" />
      <path
         id="path855"
         d="m 529.47978,303.22154 c -12.53581,0 -20.48533,9.78404 -20.48533,21.70833 0,12.07717 8.56103,22.01409 20.63821,22.01409 12.53579,0 20.48533,-9.78404 20.48533,-21.70834 0.30575,-12.07718 -8.40816,-22.01408 -20.63821,-22.01408 m 0,57.32835 c -20.63821,0 -35.92578,-15.74619 -35.92578,-35.1614 0,-19.56807 15.44045,-35.62001 36.23153,-35.62001 20.79109,0 36.07864,15.74619 36.07864,35.31426 0,19.26233 -15.28755,35.46715 -36.38439,35.46715"
         class="st2"
         inkscape:connector-curvature="0"
         style="fill:#ffffff;fill-opacity:1;stroke-width:1.52875" />
      <path
         id="path857"
         d="m 714.61215,303.22154 c -12.5358,0 -20.48533,9.78404 -20.48533,21.70833 0,12.07717 8.56104,22.01409 20.6382,22.01409 12.53581,0 20.48535,-9.78404 20.48535,-21.70834 0.15287,-12.07718 -8.40817,-22.01408 -20.63822,-22.01408 m 0,57.32835 c -20.63821,0 -35.92577,-15.74619 -35.92577,-35.1614 0,-19.56807 15.44044,-35.62001 36.23152,-35.62001 20.79108,0 36.07865,15.74619 36.07865,35.31426 0,19.26233 -15.44043,35.46715 -36.3844,35.46715"
         class="st2"
         inkscape:connector-curvature="0"
         style="fill:#ffffff;fill-opacity:1;stroke-width:1.52875" />
      <path
         id="path859"
         d="m 843.33342,289.61561 c 14.82894,0 23.8486,9.32541 23.8486,25.98884 v 44.79256 H 851.58871 V 320.3436 c 0,-10.85417 -5.0449,-16.51057 -13.7588,-16.51057 -8.40817,0 -14.52319,5.96215 -14.52319,16.81632 v 39.90054 H 807.71341 V 320.3436 c 0,-10.54842 -5.19777,-16.51057 -13.75882,-16.51057 -8.56103,0 -14.52317,6.42078 -14.52317,16.9692 v 39.74766 H 763.8381 v -70.78141 h 15.59332 v 11.61855 c 4.43339,-5.96216 10.24266,-11.61855 20.63821,-11.61855 9.78404,0 16.51056,4.73914 20.17957,11.92429 5.65641,-7.33802 12.84156,-12.07716 23.08422,-12.07716"
         class="st2"
         inkscape:connector-curvature="0"
         style="fill:#ffffff;fill-opacity:1;stroke-width:1.52875" />
      <polygon
         id="polygon861"
         points="436.4,347.4 432,344.9 431.7,344.4 431.7,339.2 432,338.7 436.4,336.2 437,336.2 441.5,338.7 441.8,339.2 441.8,344.4 441.5,344.9 437,347.4 "
         class="st2"
         style="fill:#ffffff;fill-opacity:1"
         transform="matrix(1.5287563,0,0,1.5287563,-80.952574,-172.37453)" />
      <path
         id="path863"
         d="m 641.69048,360.39701 c -20.17958,-0.45863 -34.70276,-16.51057 -34.39702,-35.92576 0.30576,-19.41521 15.59332,-35.31427 35.92578,-34.85564 12.84155,0.30574 20.79108,5.19776 26.90611,12.23004 l -9.78404,10.24267 c -4.58627,-5.0449 -9.63116,-8.71391 -17.42782,-8.86678 -11.3128,-0.15288 -19.72095,9.32541 -19.87383,21.40258 -0.30575,12.23005 7.94953,22.16696 19.87383,22.31984 7.33803,0.15288 12.84155,-3.21039 17.73357,-8.10241 l 9.17254,9.47829 c -6.8794,7.18515 -14.82894,12.38292 -28.12912,12.07717"
         class="st2"
         inkscape:connector-curvature="0"
         style="fill:#ffffff;fill-opacity:1;stroke-width:1.52875" />
    </g>
  </g>
  <style
     id="style815"
     type="text/css">
	.st0{fill:#FFFFFF;}
	.st1{fill:#03316C;}
	.st2{fill:#002E73;}
</style>
</svg>
