<svg width="128" height="34" viewBox="0 0 128 34" fill="none" xmlns="http://www.w3.org/2000/svg">
<mask id="mask0_529_70" style="mask-type:luminance" maskUnits="userSpaceOnUse" x="0" y="2" width="30" height="30">
<path d="M29.2852 2.95593H0V31.9824H29.2852V2.95593Z" fill="white"/>
</mask>
<g mask="url(#mask0_529_70)">
<g filter="url(#filter0_d_529_70)">
<path d="M2.80347 25.7839C4.02977 27.4897 5.60279 28.9169 7.41937 29.9721C9.23597 31.0272 11.255 31.6865 13.3443 31.9066C12.2694 30.2891 10.707 28.8011 8.75644 27.6681C6.80589 26.5352 4.74024 25.9163 2.80347 25.7839Z" fill="url(#paint0_linear_529_70)"/>
<path d="M11.3777 23.1569C7.61978 20.9737 3.55241 20.4172 0.64209 21.4002C0.923046 22.3287 1.29358 23.2278 1.74847 24.0847C4.27704 24.0262 7.03781 24.7129 9.60669 26.205C12.1756 27.697 14.1404 29.7563 15.3428 31.9823C16.313 31.9526 17.2781 31.8289 18.2246 31.6133C17.6361 28.5987 15.1347 25.3406 11.3777 23.1569Z" fill="url(#paint1_linear_529_70)"/>
<path d="M29.285 14.2952C28.8073 12.3518 27.9427 10.5246 26.7431 8.92273C25.5435 7.32084 24.0334 5.97711 22.303 4.97178C20.5726 3.96645 18.6573 3.32013 16.6716 3.07141C14.6858 2.8227 12.6703 2.97669 10.7454 3.52419C13.9611 3.91774 17.5307 5.12496 21.0313 7.15864C24.532 9.19232 27.3512 11.6948 29.285 14.2952Z" fill="url(#paint2_linear_529_70)"/>
<path d="M24.6065 21.4225C22.9604 18.6889 20.1407 16.0712 16.667 14.0533C13.1935 12.0354 9.52363 10.8827 6.33634 10.8065C3.53228 10.7401 1.42776 11.5552 0.563914 13.0424C0.558995 13.0512 0.552107 13.0596 0.546695 13.0684C0.468969 13.3474 0.402065 13.6267 0.341064 13.9072C1.54731 13.431 2.94491 13.1659 4.49895 13.1363C7.95483 13.0714 11.8224 14.1768 15.3915 16.2503C18.9605 18.3239 21.8388 21.1373 23.4937 24.1705C24.2356 25.5371 24.6985 26.8826 24.882 28.168C25.0955 27.9772 25.3051 27.7799 25.5082 27.5748C25.5137 27.5655 25.5171 27.5556 25.5225 27.5458C26.3864 26.0572 26.0523 23.8257 24.6065 21.4225Z" fill="url(#paint3_linear_529_70)"/>
<path d="M14.0242 18.6015C8.70488 15.5111 2.82669 15.027 0 17.1837C0.00555219 17.8587 0.057161 18.5326 0.154468 19.2007C0.985985 18.9486 1.84297 18.7899 2.70961 18.7275C5.86836 18.4898 9.3508 19.3699 12.5111 21.2068C15.6712 23.0437 18.1624 25.6343 19.5211 28.4939C19.8968 29.2773 20.1832 30.1004 20.3752 30.9477C21.0038 30.7012 21.6151 30.4124 22.2047 30.0833C22.678 26.5591 19.3451 21.6923 14.0242 18.6015Z" fill="url(#paint4_linear_529_70)"/>
<path d="M27.3425 16.8468C25.6778 14.1161 22.8334 11.4911 19.3351 9.45984C15.837 7.42862 12.1528 6.2578 8.95523 6.16384C6.51766 6.09349 4.6296 6.68431 3.65063 7.80052C7.71553 7.11181 13.0772 8.26935 18.274 11.2884C23.471 14.3075 27.1339 18.3925 28.5478 22.2645C29.0323 20.862 28.6107 18.9292 27.3425 16.8468Z" fill="url(#paint5_linear_529_70)"/>
</g>
</g>
<path d="M37.8643 20.9062L40.4277 20.5547C40.4961 22.1953 40.8037 23.3184 41.3506 23.9238C41.8975 24.5293 42.6543 24.832 43.6211 24.832C44.334 24.832 44.9492 24.6709 45.4668 24.3486C45.9844 24.0166 46.3408 23.5723 46.5361 23.0156C46.7314 22.4492 46.8291 21.5508 46.8291 20.3203V5.52539H49.6709V20.1592C49.6709 21.9561 49.4512 23.3477 49.0117 24.334C48.582 25.3203 47.8936 26.0723 46.9463 26.5898C46.0088 27.1074 44.9053 27.3662 43.6357 27.3662C41.751 27.3662 40.3057 26.8242 39.2998 25.7402C38.3037 24.6562 37.8252 23.0449 37.8643 20.9062ZM64.1729 27V24.7148C62.9619 26.4727 61.3164 27.3516 59.2363 27.3516C58.3184 27.3516 57.459 27.1758 56.6582 26.8242C55.8672 26.4727 55.2764 26.0332 54.8857 25.5059C54.5049 24.9688 54.2363 24.3145 54.0801 23.543C53.9727 23.0254 53.9189 22.2051 53.9189 21.082V11.4434H56.5557V20.0713C56.5557 21.4482 56.6094 22.376 56.7168 22.8545C56.8828 23.5479 57.2344 24.0947 57.7715 24.4951C58.3086 24.8857 58.9727 25.0811 59.7637 25.0811C60.5547 25.0811 61.2969 24.8809 61.9902 24.4805C62.6836 24.0703 63.1719 23.5186 63.4551 22.8252C63.748 22.1221 63.8945 21.1064 63.8945 19.7783V11.4434H66.5312V27H64.1729ZM70.6768 32.9619V11.4434H73.0791V13.4648C73.6455 12.6738 74.2852 12.083 74.998 11.6924C75.7109 11.292 76.5752 11.0918 77.5908 11.0918C78.9189 11.0918 80.0908 11.4336 81.1064 12.1172C82.1221 12.8008 82.8887 13.7676 83.4062 15.0176C83.9238 16.2578 84.1826 17.6201 84.1826 19.1045C84.1826 20.6963 83.8945 22.1318 83.3184 23.4111C82.752 24.6807 81.9219 25.6572 80.8281 26.3408C79.7441 27.0146 78.6016 27.3516 77.4004 27.3516C76.5215 27.3516 75.7305 27.166 75.0273 26.7949C74.334 26.4238 73.7627 25.9551 73.3135 25.3887V32.9619H70.6768ZM73.0645 19.3096C73.0645 21.3115 73.4697 22.791 74.2803 23.748C75.0908 24.7051 76.0723 25.1836 77.2246 25.1836C78.3965 25.1836 79.3975 24.6904 80.2275 23.7041C81.0674 22.708 81.4873 21.1699 81.4873 19.0898C81.4873 17.1074 81.0771 15.623 80.2568 14.6367C79.4463 13.6504 78.4746 13.1572 77.3418 13.1572C76.2188 13.1572 75.2227 13.6846 74.3535 14.7393C73.4941 15.7842 73.0645 17.3076 73.0645 19.3096ZM87.3906 8.55762V5.52539H90.0273V8.55762H87.3906ZM87.3906 27V11.4434H90.0273V27H87.3906ZM99.8125 24.6416L100.193 26.9707C99.4512 27.127 98.7871 27.2051 98.2012 27.2051C97.2441 27.2051 96.502 27.0537 95.9746 26.751C95.4473 26.4482 95.0762 26.0527 94.8613 25.5645C94.6465 25.0664 94.5391 24.0264 94.5391 22.4443V13.4941H92.6055V11.4434H94.5391V7.59082L97.1611 6.00879V11.4434H99.8125V13.4941H97.1611V22.5908C97.1611 23.3428 97.2051 23.8262 97.293 24.041C97.3906 24.2559 97.542 24.4268 97.7471 24.5537C97.9619 24.6807 98.2646 24.7441 98.6553 24.7441C98.9482 24.7441 99.334 24.71 99.8125 24.6416ZM113.055 21.9902L115.779 22.3271C115.35 23.9189 114.554 25.1543 113.392 26.0332C112.229 26.9121 110.745 27.3516 108.938 27.3516C106.663 27.3516 104.856 26.6533 103.519 25.2568C102.19 23.8506 101.526 21.8828 101.526 19.3535C101.526 16.7363 102.2 14.7051 103.548 13.2598C104.896 11.8145 106.644 11.0918 108.792 11.0918C110.872 11.0918 112.571 11.7998 113.89 13.2158C115.208 14.6318 115.867 16.624 115.867 19.1924C115.867 19.3486 115.862 19.583 115.853 19.8955H104.251C104.349 21.6045 104.832 22.9131 105.701 23.8213C106.57 24.7295 107.654 25.1836 108.953 25.1836C109.92 25.1836 110.745 24.9297 111.429 24.4219C112.112 23.9141 112.654 23.1035 113.055 21.9902ZM104.397 17.7275H113.084C112.967 16.4189 112.635 15.4375 112.088 14.7832C111.248 13.7676 110.159 13.2598 108.821 13.2598C107.61 13.2598 106.59 13.665 105.76 14.4756C104.939 15.2861 104.485 16.3701 104.397 17.7275ZM119.075 27V11.4434H121.448V13.8018C122.054 12.6982 122.61 11.9707 123.118 11.6191C123.636 11.2676 124.202 11.0918 124.817 11.0918C125.706 11.0918 126.609 11.375 127.527 11.9414L126.619 14.3877C125.975 14.0068 125.33 13.8164 124.686 13.8164C124.109 13.8164 123.592 13.9922 123.133 14.3438C122.674 14.6855 122.347 15.1641 122.151 15.7793C121.858 16.7168 121.712 17.7422 121.712 18.8555V27H119.075Z" fill="white"/>
<defs>
<filter id="filter0_d_529_70" x="-16.9551" y="-12.3037" width="63.1954" height="62.9366" filterUnits="userSpaceOnUse" color-interpolation-filters="sRGB">
<feFlood flood-opacity="0" result="BackgroundImageFix"/>
<feColorMatrix in="SourceAlpha" type="matrix" values="0 0 0 0 0 0 0 0 0 0 0 0 0 0 0 0 0 0 127 0" result="hardAlpha"/>
<feOffset dy="1.69552"/>
<feGaussianBlur stdDeviation="8.47757"/>
<feComposite in2="hardAlpha" operator="out"/>
<feColorMatrix type="matrix" values="0 0 0 0 0 0 0 0 0 0 0 0 0 0 0 0 0 0 0.1 0"/>
<feBlend mode="normal" in2="BackgroundImageFix" result="effect1_dropShadow_529_70"/>
<feBlend mode="normal" in="SourceGraphic" in2="effect1_dropShadow_529_70" result="shape"/>
</filter>
<linearGradient id="paint0_linear_529_70" x1="19.5021" y1="8.85187" x2="6.04712" y2="31.9824" gradientUnits="userSpaceOnUse">
<stop offset="0.0001" stop-color="#C7F284"/>
<stop offset="1" stop-color="#00BEF0"/>
</linearGradient>
<linearGradient id="paint1_linear_529_70" x1="19.5024" y1="8.85182" x2="6.04737" y2="31.9823" gradientUnits="userSpaceOnUse">
<stop offset="0.0001" stop-color="#C7F284"/>
<stop offset="1" stop-color="#00BEF0"/>
</linearGradient>
<linearGradient id="paint2_linear_529_70" x1="19.502" y1="8.85194" x2="6.04703" y2="31.9824" gradientUnits="userSpaceOnUse">
<stop offset="0.0001" stop-color="#C7F284"/>
<stop offset="1" stop-color="#00BEF0"/>
</linearGradient>
<linearGradient id="paint3_linear_529_70" x1="19.5023" y1="8.85198" x2="6.04732" y2="31.9825" gradientUnits="userSpaceOnUse">
<stop offset="0.0001" stop-color="#C7F284"/>
<stop offset="1" stop-color="#00BEF0"/>
</linearGradient>
<linearGradient id="paint4_linear_529_70" x1="19.5022" y1="8.85173" x2="6.04719" y2="31.9822" gradientUnits="userSpaceOnUse">
<stop offset="0.0001" stop-color="#C7F284"/>
<stop offset="1" stop-color="#00BEF0"/>
</linearGradient>
<linearGradient id="paint5_linear_529_70" x1="19.5022" y1="8.85175" x2="6.04723" y2="31.9822" gradientUnits="userSpaceOnUse">
<stop offset="0.0001" stop-color="#C7F284"/>
<stop offset="1" stop-color="#00BEF0"/>
</linearGradient>
</defs>
</svg>
