<?xml version="1.0" encoding="UTF-8" standalone="no"?>
<svg
   width="250"
   height="39.348"
   viewBox="0 0 250 39.348"
   fill="none"
   version="1.1"
   id="svg371"
   sodipodi:docname="kraken.svg"
   inkscape:version="1.2.2 (732a01da63, 2022-12-09)"
   xmlns:inkscape="http://www.inkscape.org/namespaces/inkscape"
   xmlns:sodipodi="http://sodipodi.sourceforge.net/DTD/sodipodi-0.dtd"
   xmlns="http://www.w3.org/2000/svg"
   xmlns:svg="http://www.w3.org/2000/svg">
  <defs
     id="defs375" />
  <sodipodi:namedview
     id="namedview373"
     pagecolor="#505050"
     bordercolor="#ffffff"
     borderopacity="1"
     inkscape:showpageshadow="0"
     inkscape:pageopacity="0"
     inkscape:pagecheckerboard="1"
     inkscape:deskcolor="#505050"
     showgrid="false"
     inkscape:zoom="5.9"
     inkscape:cx="124.91525"
     inkscape:cy="20"
     inkscape:window-width="2560"
     inkscape:window-height="1494"
     inkscape:window-x="-11"
     inkscape:window-y="-11"
     inkscape:window-maximized="1"
     inkscape:current-layer="svg371" />
  <path
     d="M 23.345,0.0548793 C 27.6805,-0.236933 32.0994,0.638495 35.9763,2.59781 41.7292,5.43257 46.3148,10.5184 48.4409,16.5214 49.3997,19.1894 49.9,21.9825 49.9,24.8173 v 10.4635 c 0,0.4169 0,0.8755 -0.0834,1.2923 -0.2501,1.0422 -1.0005,2.001 -2.001,2.4596 -0.7087,0.3335 -1.5008,0.3752 -2.2095,0.2501 -1.5841,-0.2918 -2.8347,-1.7925 -2.8347,-3.4183 0,-3.2517 0,-6.5033 0,-9.7549 0.0417,-0.9171 0.0417,-1.9177 -0.4586,-2.7097 -0.792,-1.5008 -2.793,-2.2095 -4.3355,-1.5841 -1.334,0.4585 -2.2928,1.8342 -2.3345,3.2516 0,3.2933 0,6.5866 0,9.8799 0,0.6253 0.0417,1.2507 -0.1667,1.8343 -0.3335,1.1672 -1.2923,2.0844 -2.4596,2.4179 -1.5424,0.4168 -3.2933,-0.2502 -4.0437,-1.6675 -0.5419,-0.8338 -0.5002,-1.876 -0.4585,-2.8348 0,-3.2933 0,-6.5449 0,-9.8382 -0.0417,-1.6676 -1.4174,-3.1683 -3.0432,-3.3767 -1.0839,-0.1668 -2.2095,0.2084 -3.0015,0.9588 -0.7087,0.667 -1.0839,1.6258 -1.0839,2.5846 v 9.5464 c 0,0.7921 0.0834,1.6259 -0.2084,2.3762 -0.4586,1.3757 -1.8343,2.3762 -3.2934,2.3345 -1.5007,0.0834 -2.9598,-0.9588 -3.4183,-2.3345 -0.2502,-0.7087 -0.2085,-1.4173 -0.2085,-2.1677 0,-3.2933 0,-6.5866 0,-9.88 0,-1.6258 -1.2923,-3.1265 -2.8764,-3.4183 -1.45907,-0.2919 -3.0432,0.4168 -3.79357,1.7508 -0.29181,0.542 -0.45856,1.1673 -0.45856,1.7926 v 10.7137 c 0,1.0422 -0.45857,2.0844 -1.25063,2.7514 C 4.669,39.533 2.70969,39.6163 1.45906,38.6575 0.541938,38.0322 0,36.9483 0,35.8228 V 24.984 C 0,20.8986 1.04219,16.8133 3.0015,13.1864 4.58563,10.2266 6.79506,7.60032 9.42138,5.51594 13.2983,2.26431 18.2591,0.34669 23.345,0.0548793 Z"
     fill="#ffffff"
     id="path367" />
  <path
     d="m 120.769,12.6028 h -5.42 c 0.209,-3.79359 1.001,-7.21196 4.461,-9.37973 3.46,-2.12606 7.254,-2.626309 11.214,-2.292809 2.126,0.166749 4.252,0.625319 6.211,1.542439 3.46,1.58414 5.17,4.29383 5.17,8.0874 0,6.7117 0,13.4234 0,20.1351 0,2.4595 0.5,2.9181 2.959,2.668 0.25,-0.0417 0.542,-0.0834 0.792,-0.1251 0.042,0.1251 0.042,0.2501 0.042,0.3335 v 4.0854 c -1.959,0.667 -3.96,0.8754 -5.92,0.3335 -1.459,-0.4169 -2.376,-1.4591 -2.876,-2.8348 -0.25,-0.7087 -0.417,-1.459 -0.625,-2.2511 -0.209,0.2501 -0.375,0.4586 -0.584,0.667 -4.294,4.3355 -9.38,6.1698 -15.383,4.6273 -4.252,-1.0839 -7.17,-4.9608 -7.295,-9.3797 -0.042,-1.4174 0.083,-2.8347 0.417,-4.2104 0.792,-3.1683 3.043,-5.0859 5.878,-6.3782 2.001,-0.9171 4.169,-1.1673 6.336,-1.4591 2.543,-0.3335 5.045,-0.6253 7.588,-1.0005 1.709,-0.2501 2.584,-1.1672 2.834,-2.8764 0.542,-3.46007 -1,-5.75289 -4.335,-6.58664 -2.001,-0.50025 -4.044,-0.58362 -6.087,-0.20843 -3.001,0.54193 -4.669,2.25112 -5.252,5.21097 0.041,0.4168 -0.042,0.8337 -0.125,1.2923 z m 15.966,6.67 c -2.501,1.334 -4.919,1.6675 -7.379,2.0427 -2.042,0.3335 -4.127,0.6253 -6.128,1.2506 -2.626,0.8754 -3.835,3.0432 -3.585,5.9613 0.209,2.4179 1.834,4.3772 4.461,4.7941 4.043,0.667 7.629,-0.4586 10.463,-3.4601 0.834,-0.8754 1.501,-2.1261 1.668,-3.2933 0.375,-2.3345 0.333,-4.7107 0.5,-7.2953 z m 77.247,7.0035 c -0.125,0.5836 -0.208,1.0839 -0.334,1.5424 -2.334,7.1286 -7.086,10.1718 -12.839,10.8388 -9.964,1.0839 -15.675,-5.4194 -17.134,-12.3395 -1.167,-5.5028 -1,-10.9638 1.418,-16.1331 2.292,-4.87744 5.961,-8.08739 11.422,-9.0462 6.545,-1.1672514 15.799,2.08437 17.342,12.2978 0.417,2.6263 0.5,5.336 0.75,8.0874 h -25.346 c 0.209,3.7519 0.792,7.2536 3.544,9.9633 1.125,1.1256 2.584,1.6675 4.168,1.9593 5.128,0.9172 9.38,-1.5424 11.048,-6.5032 0.166,-0.542 0.417,-0.7087 0.958,-0.667 1.626,0 3.252,0 5.003,0 z M 189.47,16.6882 h 18.968 c -0.209,-2.2095 -0.584,-4.2522 -1.626,-6.1698 -1.001,-1.83425 -2.46,-3.16825 -4.461,-3.83525 -6.545,-2.25113 -13.298,2.95981 -12.881,10.00505 z m 38.144,20.7603 h -5.753 V 1.68065 h 5.461 v 5.0025 c 0.417,-0.45856 0.667,-0.75037 0.917,-1.04219 3.919,-4.46056 8.838,-5.6278215 14.424,-4.25213 3.877,0.95881 6.045,3.7102 6.795,7.54545 0.292,1.58412 0.5,3.20992 0.5,4.79402 0.042,7.6705 0.042,15.341 0.042,23.0116 0,0.2084 -0.042,0.4168 -0.042,0.667 H 244.08 V 36.448 c 0,-7.1702 0.042,-14.3405 -0.041,-21.5107 0,-1.5841 -0.25,-3.21 -0.709,-4.7524 -0.75,-2.50125 -2.751,-3.83525 -5.378,-3.96031 -4.794,-0.16675 -8.587,2.37619 -9.755,6.62831 -0.416,1.5424 -0.542,3.1683 -0.542,4.7941 -0.041,6.2948 -0.041,12.5479 -0.041,18.7594 z M 151.784,1.68065 h 5.545 V 16.8549 c 0.333,-0.3335 0.542,-0.5002 0.75,-0.7087 4.544,-4.6273 9.088,-9.2963 13.632,-13.92362 0.375,-0.41688 0.75,-0.58363 1.334,-0.58363 2.126,0.04169 4.294,0 6.628,0 -0.333,0.3335 -0.5,0.54194 -0.709,0.75037 -4.002,4.00202 -7.962,8.04568 -12.006,12.00598 -0.458,0.4586 -0.458,0.7504 -0.166,1.2507 4.377,6.9618 8.712,13.9236 13.048,20.8854 0.167,0.2501 0.292,0.5003 0.5,0.8755 -0.292,0.0416 -0.5,0.0416 -0.75,0.0416 -2.001,0 -3.961,0 -5.962,0 -0.541,0 -0.792,-0.2084 -1.083,-0.6253 -3.335,-5.5861 -6.67,-11.1722 -10.005,-16.8 -0.167,-0.2502 -0.292,-0.5003 -0.501,-0.7921 -1.542,1.5424 -3.043,3.0015 -4.544,4.5439 -0.208,0.2085 -0.25,0.5837 -0.25,0.8755 0,3.9186 0,7.8372 0,11.7559 v 1.0005 c -1.084,0 -2.167,0 -3.21,0 -0.75,0 -1.792,0.2084 -2.209,-0.2085 -0.375,-0.3335 -0.167,-1.4174 -0.167,-2.1677 V 2.63945 c 0.125,-0.20843 0.125,-0.54193 0.125,-0.9588 z M 87.7939,1.63895 c -4.5023,4.46058 -8.8795,8.83775 -13.2983,13.21495 4.7523,7.5871 9.3796,15.0075 14.0903,22.5946 -0.3752,0 -0.6253,0.0417 -0.8754,0.0417 -1.9176,0 -3.8769,0 -5.7946,0 -0.5419,0 -0.8754,-0.2084 -1.1672,-0.667 -3.335,-5.5861 -6.67,-11.1722 -10.005,-16.8 -0.1251,-0.2502 -0.2918,-0.4586 -0.5003,-0.7921 -0.8337,0.8754 -1.5841,1.8342 -2.5012,2.5012 -1.876,1.4174 -2.4179,3.1683 -2.2928,5.5028 0.2084,3.0432 0.0417,6.1281 0.0417,9.1713 v 1.0005 H 59.9883 V 1.68065 h 5.5028 V 16.6048 c 0.125,0.0834 0.2501,0.1667 0.3334,0.2501 0.1668,-0.2501 0.2502,-0.5419 0.4169,-0.7504 4.5023,-4.6273 9.0462,-9.21291 13.5485,-13.88192 0.4168,-0.41688 0.792,-0.62531 1.4173,-0.58363 1.876,0.04169 3.7519,0 5.6279,0 0.2918,0 0.5419,0 0.9588,0 z M 98.7994,7.60028 C 101.592,3.51489 104.552,0.0965214 110.055,1.09702 v 6.12807 c -1.459,0.08337 -2.918,0.04169 -4.294,0.3335 -3.377,0.70869 -6.0028,3.79361 -6.5448,7.54541 -0.0833,0.7504 -0.1667,1.5008 -0.1667,2.2512 0,6.3781 0,12.7563 0,19.1345 v 1.0005 H 93.38 V 1.76401 h 5.4194 c 0,1.87594 0,3.75189 0,5.83627 z"
     fill="#ffffff"
     id="path369" />
</svg>
