<svg width="34" height="35" viewBox="0 0 34 35" fill="none" xmlns="http://www.w3.org/2000/svg">
<mask id="path-1-inside-1_594_3306" fill="white">
<path d="M32.6976 21.9488L30.1388 19.7611C30.2599 19.0189 30.3224 18.261 30.3224 17.5032C30.3224 16.7453 30.2599 15.9874 30.1388 15.2452L32.6976 13.0575C32.8906 12.8923 33.0287 12.6723 33.0936 12.4266C33.1585 12.181 33.1471 11.9214 33.0609 11.6825L33.0257 11.5809C32.3213 9.6121 31.2665 7.78701 29.9122 6.19379L29.8419 6.11175C29.6776 5.91858 29.4587 5.77972 29.2139 5.71347C28.9691 5.64722 28.71 5.65669 28.4707 5.74063L25.2947 6.86962C24.1228 5.90861 22.8141 5.15075 21.3999 4.61946L20.7866 1.29892C20.7403 1.04907 20.6191 0.819207 20.4391 0.63988C20.2591 0.460552 20.0288 0.340245 19.7787 0.294942L19.6732 0.27541C17.638 -0.0918033 15.4972 -0.0918033 13.4619 0.27541L13.3564 0.294942C13.1064 0.340245 12.876 0.460552 12.696 0.63988C12.516 0.819207 12.3948 1.04907 12.3485 1.29892L11.7313 4.63509C10.3284 5.16648 9.02199 5.92395 7.86384 6.87743L4.66439 5.74063C4.42518 5.65603 4.16589 5.64621 3.92096 5.7125C3.67604 5.77879 3.45709 5.91804 3.29321 6.11175L3.22289 6.19379C1.87024 7.78813 0.815596 9.61292 0.109391 11.5809L0.0742318 11.6825C-0.101562 12.1708 0.0429797 12.7177 0.437538 13.0575L3.02756 15.2686C2.90646 16.0031 2.84786 16.7531 2.84786 17.4993C2.84786 18.2493 2.90646 18.9994 3.02756 19.7299L0.437538 21.941C0.244539 22.1062 0.106408 22.3263 0.0415107 22.5719C-0.0233863 22.8175 -0.0119735 23.0771 0.0742318 23.3161L0.109391 23.4176C0.816471 25.3865 1.86342 27.2031 3.22289 28.8047L3.29321 28.8868C3.45749 29.0799 3.67645 29.2188 3.92123 29.285C4.166 29.3513 4.42511 29.3418 4.66439 29.2579L7.86384 28.1211C9.02798 29.0782 10.3288 29.8361 11.7313 30.3634L12.3485 33.6996C12.3948 33.9495 12.516 34.1793 12.696 34.3586C12.876 34.538 13.1064 34.6583 13.3564 34.7036L13.4619 34.7231C15.5159 35.0923 17.6192 35.0923 19.6732 34.7231L19.7787 34.7036C20.0288 34.6583 20.2591 34.538 20.4391 34.3586C20.6191 34.1793 20.7403 33.9495 20.7866 33.6996L21.3999 30.3791C22.8135 29.8492 24.1296 29.0888 25.2947 28.1289L28.4707 29.2579C28.7099 29.3425 28.9692 29.3523 29.2142 29.286C29.4591 29.2197 29.678 29.0805 29.8419 28.8868L29.9122 28.8047C31.2717 27.1992 32.3187 25.3865 33.0257 23.4176L33.0609 23.3161C33.2367 22.8356 33.0921 22.2887 32.6976 21.9488ZM27.3652 15.7062C27.4629 16.2961 27.5136 16.9016 27.5136 17.5071C27.5136 18.1126 27.4629 18.7181 27.3652 19.308L27.1074 20.8745L30.0255 23.3708C29.5831 24.3899 29.0247 25.3547 28.3613 26.246L24.7361 24.9607L23.5095 25.9686C22.5758 26.7343 21.5367 27.3359 20.4116 27.7578L18.9232 28.3164L18.2239 32.1057C17.1206 32.2308 16.0067 32.2308 14.9034 32.1057L14.2041 28.3086L12.7275 27.7422C11.6141 27.3203 10.5789 26.7187 9.65302 25.9569L8.42637 24.9451L4.77768 26.2421C4.11357 25.3475 3.55885 24.3826 3.11351 23.3669L6.06293 20.8472L5.809 19.2845C5.71525 18.7025 5.66446 18.1009 5.66446 17.5071C5.66446 16.9094 5.71134 16.3117 5.809 15.7296L6.06293 14.167L3.11351 11.6473C3.55494 10.6277 4.11357 9.66669 4.77768 8.77209L8.42637 10.0691L9.65302 9.05727C10.5789 8.2955 11.6141 7.69389 12.7275 7.27199L14.208 6.71336L14.9073 2.91622C16.005 2.79121 17.1262 2.79121 18.2278 2.91622L18.9271 6.70554L20.4155 7.26418C21.5367 7.68608 22.5797 8.28768 23.5134 9.05336L24.74 10.0612L28.3653 8.776C29.0294 9.67059 29.5841 10.6355 30.0294 11.6512L27.1113 14.1475L27.3652 15.7062ZM16.5715 10.2409C12.7743 10.2409 9.69599 13.3193 9.69599 17.1164C9.69599 20.9136 12.7743 23.9919 16.5715 23.9919C20.3686 23.9919 23.4469 20.9136 23.4469 17.1164C23.4469 13.3193 20.3686 10.2409 16.5715 10.2409ZM19.6654 20.2104C19.2596 20.6174 18.7774 20.9401 18.2464 21.16C17.7154 21.3799 17.1462 21.4926 16.5715 21.4917C15.4034 21.4917 14.3057 21.0347 13.4775 20.2104C13.0705 19.8046 12.7478 19.3223 12.5279 18.7913C12.308 18.2604 12.1953 17.6911 12.1962 17.1164C12.1962 15.9484 12.6532 14.8506 13.4775 14.0225C14.3057 13.1943 15.4034 12.7411 16.5715 12.7411C17.7395 12.7411 18.8373 13.1943 19.6654 14.0225C20.0724 14.4283 20.3951 14.9105 20.615 15.4415C20.8349 15.9725 20.9477 16.5417 20.9468 17.1164C20.9468 18.2845 20.4897 19.3822 19.6654 20.2104Z"/>
</mask>
<path d="M32.6976 21.9488L30.1388 19.7611C30.2599 19.0189 30.3224 18.261 30.3224 17.5032C30.3224 16.7453 30.2599 15.9874 30.1388 15.2452L32.6976 13.0575C32.8906 12.8923 33.0287 12.6723 33.0936 12.4266C33.1585 12.181 33.1471 11.9214 33.0609 11.6825L33.0257 11.5809C32.3213 9.6121 31.2665 7.78701 29.9122 6.19379L29.8419 6.11175C29.6776 5.91858 29.4587 5.77972 29.2139 5.71347C28.9691 5.64722 28.71 5.65669 28.4707 5.74063L25.2947 6.86962C24.1228 5.90861 22.8141 5.15075 21.3999 4.61946L20.7866 1.29892C20.7403 1.04907 20.6191 0.819207 20.4391 0.63988C20.2591 0.460552 20.0288 0.340245 19.7787 0.294942L19.6732 0.27541C17.638 -0.0918033 15.4972 -0.0918033 13.4619 0.27541L13.3564 0.294942C13.1064 0.340245 12.876 0.460552 12.696 0.63988C12.516 0.819207 12.3948 1.04907 12.3485 1.29892L11.7313 4.63509C10.3284 5.16648 9.02199 5.92395 7.86384 6.87743L4.66439 5.74063C4.42518 5.65603 4.16589 5.64621 3.92096 5.7125C3.67604 5.77879 3.45709 5.91804 3.29321 6.11175L3.22289 6.19379C1.87024 7.78813 0.815596 9.61292 0.109391 11.5809L0.0742318 11.6825C-0.101562 12.1708 0.0429797 12.7177 0.437538 13.0575L3.02756 15.2686C2.90646 16.0031 2.84786 16.7531 2.84786 17.4993C2.84786 18.2493 2.90646 18.9994 3.02756 19.7299L0.437538 21.941C0.244539 22.1062 0.106408 22.3263 0.0415107 22.5719C-0.0233863 22.8175 -0.0119735 23.0771 0.0742318 23.3161L0.109391 23.4176C0.816471 25.3865 1.86342 27.2031 3.22289 28.8047L3.29321 28.8868C3.45749 29.0799 3.67645 29.2188 3.92123 29.285C4.166 29.3513 4.42511 29.3418 4.66439 29.2579L7.86384 28.1211C9.02798 29.0782 10.3288 29.8361 11.7313 30.3634L12.3485 33.6996C12.3948 33.9495 12.516 34.1793 12.696 34.3586C12.876 34.538 13.1064 34.6583 13.3564 34.7036L13.4619 34.7231C15.5159 35.0923 17.6192 35.0923 19.6732 34.7231L19.7787 34.7036C20.0288 34.6583 20.2591 34.538 20.4391 34.3586C20.6191 34.1793 20.7403 33.9495 20.7866 33.6996L21.3999 30.3791C22.8135 29.8492 24.1296 29.0888 25.2947 28.1289L28.4707 29.2579C28.7099 29.3425 28.9692 29.3523 29.2142 29.286C29.4591 29.2197 29.678 29.0805 29.8419 28.8868L29.9122 28.8047C31.2717 27.1992 32.3187 25.3865 33.0257 23.4176L33.0609 23.3161C33.2367 22.8356 33.0921 22.2887 32.6976 21.9488ZM27.3652 15.7062C27.4629 16.2961 27.5136 16.9016 27.5136 17.5071C27.5136 18.1126 27.4629 18.7181 27.3652 19.308L27.1074 20.8745L30.0255 23.3708C29.5831 24.3899 29.0247 25.3547 28.3613 26.246L24.7361 24.9607L23.5095 25.9686C22.5758 26.7343 21.5367 27.3359 20.4116 27.7578L18.9232 28.3164L18.2239 32.1057C17.1206 32.2308 16.0067 32.2308 14.9034 32.1057L14.2041 28.3086L12.7275 27.7422C11.6141 27.3203 10.5789 26.7187 9.65302 25.9569L8.42637 24.9451L4.77768 26.2421C4.11357 25.3475 3.55885 24.3826 3.11351 23.3669L6.06293 20.8472L5.809 19.2845C5.71525 18.7025 5.66446 18.1009 5.66446 17.5071C5.66446 16.9094 5.71134 16.3117 5.809 15.7296L6.06293 14.167L3.11351 11.6473C3.55494 10.6277 4.11357 9.66669 4.77768 8.77209L8.42637 10.0691L9.65302 9.05727C10.5789 8.2955 11.6141 7.69389 12.7275 7.27199L14.208 6.71336L14.9073 2.91622C16.005 2.79121 17.1262 2.79121 18.2278 2.91622L18.9271 6.70554L20.4155 7.26418C21.5367 7.68608 22.5797 8.28768 23.5134 9.05336L24.74 10.0612L28.3653 8.776C29.0294 9.67059 29.5841 10.6355 30.0294 11.6512L27.1113 14.1475L27.3652 15.7062ZM16.5715 10.2409C12.7743 10.2409 9.69599 13.3193 9.69599 17.1164C9.69599 20.9136 12.7743 23.9919 16.5715 23.9919C20.3686 23.9919 23.4469 20.9136 23.4469 17.1164C23.4469 13.3193 20.3686 10.2409 16.5715 10.2409ZM19.6654 20.2104C19.2596 20.6174 18.7774 20.9401 18.2464 21.16C17.7154 21.3799 17.1462 21.4926 16.5715 21.4917C15.4034 21.4917 14.3057 21.0347 13.4775 20.2104C13.0705 19.8046 12.7478 19.3223 12.5279 18.7913C12.308 18.2604 12.1953 17.6911 12.1962 17.1164C12.1962 15.9484 12.6532 14.8506 13.4775 14.0225C14.3057 13.1943 15.4034 12.7411 16.5715 12.7411C17.7395 12.7411 18.8373 13.1943 19.6654 14.0225C20.0724 14.4283 20.3951 14.9105 20.615 15.4415C20.8349 15.9725 20.9477 16.5417 20.9468 17.1164C20.9468 18.2845 20.4897 19.3822 19.6654 20.2104Z" fill="#2987C8" fill-opacity="0.33"/>
<path d="M32.6976 21.9488L30.1388 19.7611C30.2599 19.0189 30.3224 18.261 30.3224 17.5032C30.3224 16.7453 30.2599 15.9874 30.1388 15.2452L32.6976 13.0575C32.8906 12.8923 33.0287 12.6723 33.0936 12.4266C33.1585 12.181 33.1471 11.9214 33.0609 11.6825L33.0257 11.5809C32.3213 9.6121 31.2665 7.78701 29.9122 6.19379L29.8419 6.11175C29.6776 5.91858 29.4587 5.77972 29.2139 5.71347C28.9691 5.64722 28.71 5.65669 28.4707 5.74063L25.2947 6.86962C24.1228 5.90861 22.8141 5.15075 21.3999 4.61946L20.7866 1.29892C20.7403 1.04907 20.6191 0.819207 20.4391 0.63988C20.2591 0.460552 20.0288 0.340245 19.7787 0.294942L19.6732 0.27541C17.638 -0.0918033 15.4972 -0.0918033 13.4619 0.27541L13.3564 0.294942C13.1064 0.340245 12.876 0.460552 12.696 0.63988C12.516 0.819207 12.3948 1.04907 12.3485 1.29892L11.7313 4.63509C10.3284 5.16648 9.02199 5.92395 7.86384 6.87743L4.66439 5.74063C4.42518 5.65603 4.16589 5.64621 3.92096 5.7125C3.67604 5.77879 3.45709 5.91804 3.29321 6.11175L3.22289 6.19379C1.87024 7.78813 0.815596 9.61292 0.109391 11.5809L0.0742318 11.6825C-0.101562 12.1708 0.0429797 12.7177 0.437538 13.0575L3.02756 15.2686C2.90646 16.0031 2.84786 16.7531 2.84786 17.4993C2.84786 18.2493 2.90646 18.9994 3.02756 19.7299L0.437538 21.941C0.244539 22.1062 0.106408 22.3263 0.0415107 22.5719C-0.0233863 22.8175 -0.0119735 23.0771 0.0742318 23.3161L0.109391 23.4176C0.816471 25.3865 1.86342 27.2031 3.22289 28.8047L3.29321 28.8868C3.45749 29.0799 3.67645 29.2188 3.92123 29.285C4.166 29.3513 4.42511 29.3418 4.66439 29.2579L7.86384 28.1211C9.02798 29.0782 10.3288 29.8361 11.7313 30.3634L12.3485 33.6996C12.3948 33.9495 12.516 34.1793 12.696 34.3586C12.876 34.538 13.1064 34.6583 13.3564 34.7036L13.4619 34.7231C15.5159 35.0923 17.6192 35.0923 19.6732 34.7231L19.7787 34.7036C20.0288 34.6583 20.2591 34.538 20.4391 34.3586C20.6191 34.1793 20.7403 33.9495 20.7866 33.6996L21.3999 30.3791C22.8135 29.8492 24.1296 29.0888 25.2947 28.1289L28.4707 29.2579C28.7099 29.3425 28.9692 29.3523 29.2142 29.286C29.4591 29.2197 29.678 29.0805 29.8419 28.8868L29.9122 28.8047C31.2717 27.1992 32.3187 25.3865 33.0257 23.4176L33.0609 23.3161C33.2367 22.8356 33.0921 22.2887 32.6976 21.9488ZM27.3652 15.7062C27.4629 16.2961 27.5136 16.9016 27.5136 17.5071C27.5136 18.1126 27.4629 18.7181 27.3652 19.308L27.1074 20.8745L30.0255 23.3708C29.5831 24.3899 29.0247 25.3547 28.3613 26.246L24.7361 24.9607L23.5095 25.9686C22.5758 26.7343 21.5367 27.3359 20.4116 27.7578L18.9232 28.3164L18.2239 32.1057C17.1206 32.2308 16.0067 32.2308 14.9034 32.1057L14.2041 28.3086L12.7275 27.7422C11.6141 27.3203 10.5789 26.7187 9.65302 25.9569L8.42637 24.9451L4.77768 26.2421C4.11357 25.3475 3.55885 24.3826 3.11351 23.3669L6.06293 20.8472L5.809 19.2845C5.71525 18.7025 5.66446 18.1009 5.66446 17.5071C5.66446 16.9094 5.71134 16.3117 5.809 15.7296L6.06293 14.167L3.11351 11.6473C3.55494 10.6277 4.11357 9.66669 4.77768 8.77209L8.42637 10.0691L9.65302 9.05727C10.5789 8.2955 11.6141 7.69389 12.7275 7.27199L14.208 6.71336L14.9073 2.91622C16.005 2.79121 17.1262 2.79121 18.2278 2.91622L18.9271 6.70554L20.4155 7.26418C21.5367 7.68608 22.5797 8.28768 23.5134 9.05336L24.74 10.0612L28.3653 8.776C29.0294 9.67059 29.5841 10.6355 30.0294 11.6512L27.1113 14.1475L27.3652 15.7062ZM16.5715 10.2409C12.7743 10.2409 9.69599 13.3193 9.69599 17.1164C9.69599 20.9136 12.7743 23.9919 16.5715 23.9919C20.3686 23.9919 23.4469 20.9136 23.4469 17.1164C23.4469 13.3193 20.3686 10.2409 16.5715 10.2409ZM19.6654 20.2104C19.2596 20.6174 18.7774 20.9401 18.2464 21.16C17.7154 21.3799 17.1462 21.4926 16.5715 21.4917C15.4034 21.4917 14.3057 21.0347 13.4775 20.2104C13.0705 19.8046 12.7478 19.3223 12.5279 18.7913C12.308 18.2604 12.1953 17.6911 12.1962 17.1164C12.1962 15.9484 12.6532 14.8506 13.4775 14.0225C14.3057 13.1943 15.4034 12.7411 16.5715 12.7411C17.7395 12.7411 18.8373 13.1943 19.6654 14.0225C20.0724 14.4283 20.3951 14.9105 20.615 15.4415C20.8349 15.9725 20.9477 16.5417 20.9468 17.1164C20.9468 18.2845 20.4897 19.3822 19.6654 20.2104Z" fill="url(#paint0_linear_594_3306)"/>
<path d="M32.6976 21.9488L30.1388 19.7611C30.2599 19.0189 30.3224 18.261 30.3224 17.5032C30.3224 16.7453 30.2599 15.9874 30.1388 15.2452L32.6976 13.0575C32.8906 12.8923 33.0287 12.6723 33.0936 12.4266C33.1585 12.181 33.1471 11.9214 33.0609 11.6825L33.0257 11.5809C32.3213 9.6121 31.2665 7.78701 29.9122 6.19379L29.8419 6.11175C29.6776 5.91858 29.4587 5.77972 29.2139 5.71347C28.9691 5.64722 28.71 5.65669 28.4707 5.74063L25.2947 6.86962C24.1228 5.90861 22.8141 5.15075 21.3999 4.61946L20.7866 1.29892C20.7403 1.04907 20.6191 0.819207 20.4391 0.63988C20.2591 0.460552 20.0288 0.340245 19.7787 0.294942L19.6732 0.27541C17.638 -0.0918033 15.4972 -0.0918033 13.4619 0.27541L13.3564 0.294942C13.1064 0.340245 12.876 0.460552 12.696 0.63988C12.516 0.819207 12.3948 1.04907 12.3485 1.29892L11.7313 4.63509C10.3284 5.16648 9.02199 5.92395 7.86384 6.87743L4.66439 5.74063C4.42518 5.65603 4.16589 5.64621 3.92096 5.7125C3.67604 5.77879 3.45709 5.91804 3.29321 6.11175L3.22289 6.19379C1.87024 7.78813 0.815596 9.61292 0.109391 11.5809L0.0742318 11.6825C-0.101562 12.1708 0.0429797 12.7177 0.437538 13.0575L3.02756 15.2686C2.90646 16.0031 2.84786 16.7531 2.84786 17.4993C2.84786 18.2493 2.90646 18.9994 3.02756 19.7299L0.437538 21.941C0.244539 22.1062 0.106408 22.3263 0.0415107 22.5719C-0.0233863 22.8175 -0.0119735 23.0771 0.0742318 23.3161L0.109391 23.4176C0.816471 25.3865 1.86342 27.2031 3.22289 28.8047L3.29321 28.8868C3.45749 29.0799 3.67645 29.2188 3.92123 29.285C4.166 29.3513 4.42511 29.3418 4.66439 29.2579L7.86384 28.1211C9.02798 29.0782 10.3288 29.8361 11.7313 30.3634L12.3485 33.6996C12.3948 33.9495 12.516 34.1793 12.696 34.3586C12.876 34.538 13.1064 34.6583 13.3564 34.7036L13.4619 34.7231C15.5159 35.0923 17.6192 35.0923 19.6732 34.7231L19.7787 34.7036C20.0288 34.6583 20.2591 34.538 20.4391 34.3586C20.6191 34.1793 20.7403 33.9495 20.7866 33.6996L21.3999 30.3791C22.8135 29.8492 24.1296 29.0888 25.2947 28.1289L28.4707 29.2579C28.7099 29.3425 28.9692 29.3523 29.2142 29.286C29.4591 29.2197 29.678 29.0805 29.8419 28.8868L29.9122 28.8047C31.2717 27.1992 32.3187 25.3865 33.0257 23.4176L33.0609 23.3161C33.2367 22.8356 33.0921 22.2887 32.6976 21.9488ZM27.3652 15.7062C27.4629 16.2961 27.5136 16.9016 27.5136 17.5071C27.5136 18.1126 27.4629 18.7181 27.3652 19.308L27.1074 20.8745L30.0255 23.3708C29.5831 24.3899 29.0247 25.3547 28.3613 26.246L24.7361 24.9607L23.5095 25.9686C22.5758 26.7343 21.5367 27.3359 20.4116 27.7578L18.9232 28.3164L18.2239 32.1057C17.1206 32.2308 16.0067 32.2308 14.9034 32.1057L14.2041 28.3086L12.7275 27.7422C11.6141 27.3203 10.5789 26.7187 9.65302 25.9569L8.42637 24.9451L4.77768 26.2421C4.11357 25.3475 3.55885 24.3826 3.11351 23.3669L6.06293 20.8472L5.809 19.2845C5.71525 18.7025 5.66446 18.1009 5.66446 17.5071C5.66446 16.9094 5.71134 16.3117 5.809 15.7296L6.06293 14.167L3.11351 11.6473C3.55494 10.6277 4.11357 9.66669 4.77768 8.77209L8.42637 10.0691L9.65302 9.05727C10.5789 8.2955 11.6141 7.69389 12.7275 7.27199L14.208 6.71336L14.9073 2.91622C16.005 2.79121 17.1262 2.79121 18.2278 2.91622L18.9271 6.70554L20.4155 7.26418C21.5367 7.68608 22.5797 8.28768 23.5134 9.05336L24.74 10.0612L28.3653 8.776C29.0294 9.67059 29.5841 10.6355 30.0294 11.6512L27.1113 14.1475L27.3652 15.7062ZM16.5715 10.2409C12.7743 10.2409 9.69599 13.3193 9.69599 17.1164C9.69599 20.9136 12.7743 23.9919 16.5715 23.9919C20.3686 23.9919 23.4469 20.9136 23.4469 17.1164C23.4469 13.3193 20.3686 10.2409 16.5715 10.2409ZM19.6654 20.2104C19.2596 20.6174 18.7774 20.9401 18.2464 21.16C17.7154 21.3799 17.1462 21.4926 16.5715 21.4917C15.4034 21.4917 14.3057 21.0347 13.4775 20.2104C13.0705 19.8046 12.7478 19.3223 12.5279 18.7913C12.308 18.2604 12.1953 17.6911 12.1962 17.1164C12.1962 15.9484 12.6532 14.8506 13.4775 14.0225C14.3057 13.1943 15.4034 12.7411 16.5715 12.7411C17.7395 12.7411 18.8373 13.1943 19.6654 14.0225C20.0724 14.4283 20.3951 14.9105 20.615 15.4415C20.8349 15.9725 20.9477 16.5417 20.9468 17.1164C20.9468 18.2845 20.4897 19.3822 19.6654 20.2104Z" fill="url(#paint1_linear_594_3306)"/>
<path d="M32.6976 21.9488L30.1388 19.7611C30.2599 19.0189 30.3224 18.261 30.3224 17.5032C30.3224 16.7453 30.2599 15.9874 30.1388 15.2452L32.6976 13.0575C32.8906 12.8923 33.0287 12.6723 33.0936 12.4266C33.1585 12.181 33.1471 11.9214 33.0609 11.6825L33.0257 11.5809C32.3213 9.6121 31.2665 7.78701 29.9122 6.19379L29.8419 6.11175C29.6776 5.91858 29.4587 5.77972 29.2139 5.71347C28.9691 5.64722 28.71 5.65669 28.4707 5.74063L25.2947 6.86962C24.1228 5.90861 22.8141 5.15075 21.3999 4.61946L20.7866 1.29892C20.7403 1.04907 20.6191 0.819207 20.4391 0.63988C20.2591 0.460552 20.0288 0.340245 19.7787 0.294942L19.6732 0.27541C17.638 -0.0918033 15.4972 -0.0918033 13.4619 0.27541L13.3564 0.294942C13.1064 0.340245 12.876 0.460552 12.696 0.63988C12.516 0.819207 12.3948 1.04907 12.3485 1.29892L11.7313 4.63509C10.3284 5.16648 9.02199 5.92395 7.86384 6.87743L4.66439 5.74063C4.42518 5.65603 4.16589 5.64621 3.92096 5.7125C3.67604 5.77879 3.45709 5.91804 3.29321 6.11175L3.22289 6.19379C1.87024 7.78813 0.815596 9.61292 0.109391 11.5809L0.0742318 11.6825C-0.101562 12.1708 0.0429797 12.7177 0.437538 13.0575L3.02756 15.2686C2.90646 16.0031 2.84786 16.7531 2.84786 17.4993C2.84786 18.2493 2.90646 18.9994 3.02756 19.7299L0.437538 21.941C0.244539 22.1062 0.106408 22.3263 0.0415107 22.5719C-0.0233863 22.8175 -0.0119735 23.0771 0.0742318 23.3161L0.109391 23.4176C0.816471 25.3865 1.86342 27.2031 3.22289 28.8047L3.29321 28.8868C3.45749 29.0799 3.67645 29.2188 3.92123 29.285C4.166 29.3513 4.42511 29.3418 4.66439 29.2579L7.86384 28.1211C9.02798 29.0782 10.3288 29.8361 11.7313 30.3634L12.3485 33.6996C12.3948 33.9495 12.516 34.1793 12.696 34.3586C12.876 34.538 13.1064 34.6583 13.3564 34.7036L13.4619 34.7231C15.5159 35.0923 17.6192 35.0923 19.6732 34.7231L19.7787 34.7036C20.0288 34.6583 20.2591 34.538 20.4391 34.3586C20.6191 34.1793 20.7403 33.9495 20.7866 33.6996L21.3999 30.3791C22.8135 29.8492 24.1296 29.0888 25.2947 28.1289L28.4707 29.2579C28.7099 29.3425 28.9692 29.3523 29.2142 29.286C29.4591 29.2197 29.678 29.0805 29.8419 28.8868L29.9122 28.8047C31.2717 27.1992 32.3187 25.3865 33.0257 23.4176L33.0609 23.3161C33.2367 22.8356 33.0921 22.2887 32.6976 21.9488ZM27.3652 15.7062C27.4629 16.2961 27.5136 16.9016 27.5136 17.5071C27.5136 18.1126 27.4629 18.7181 27.3652 19.308L27.1074 20.8745L30.0255 23.3708C29.5831 24.3899 29.0247 25.3547 28.3613 26.246L24.7361 24.9607L23.5095 25.9686C22.5758 26.7343 21.5367 27.3359 20.4116 27.7578L18.9232 28.3164L18.2239 32.1057C17.1206 32.2308 16.0067 32.2308 14.9034 32.1057L14.2041 28.3086L12.7275 27.7422C11.6141 27.3203 10.5789 26.7187 9.65302 25.9569L8.42637 24.9451L4.77768 26.2421C4.11357 25.3475 3.55885 24.3826 3.11351 23.3669L6.06293 20.8472L5.809 19.2845C5.71525 18.7025 5.66446 18.1009 5.66446 17.5071C5.66446 16.9094 5.71134 16.3117 5.809 15.7296L6.06293 14.167L3.11351 11.6473C3.55494 10.6277 4.11357 9.66669 4.77768 8.77209L8.42637 10.0691L9.65302 9.05727C10.5789 8.2955 11.6141 7.69389 12.7275 7.27199L14.208 6.71336L14.9073 2.91622C16.005 2.79121 17.1262 2.79121 18.2278 2.91622L18.9271 6.70554L20.4155 7.26418C21.5367 7.68608 22.5797 8.28768 23.5134 9.05336L24.74 10.0612L28.3653 8.776C29.0294 9.67059 29.5841 10.6355 30.0294 11.6512L27.1113 14.1475L27.3652 15.7062ZM16.5715 10.2409C12.7743 10.2409 9.69599 13.3193 9.69599 17.1164C9.69599 20.9136 12.7743 23.9919 16.5715 23.9919C20.3686 23.9919 23.4469 20.9136 23.4469 17.1164C23.4469 13.3193 20.3686 10.2409 16.5715 10.2409ZM19.6654 20.2104C19.2596 20.6174 18.7774 20.9401 18.2464 21.16C17.7154 21.3799 17.1462 21.4926 16.5715 21.4917C15.4034 21.4917 14.3057 21.0347 13.4775 20.2104C13.0705 19.8046 12.7478 19.3223 12.5279 18.7913C12.308 18.2604 12.1953 17.6911 12.1962 17.1164C12.1962 15.9484 12.6532 14.8506 13.4775 14.0225C14.3057 13.1943 15.4034 12.7411 16.5715 12.7411C17.7395 12.7411 18.8373 13.1943 19.6654 14.0225C20.0724 14.4283 20.3951 14.9105 20.615 15.4415C20.8349 15.9725 20.9477 16.5417 20.9468 17.1164C20.9468 18.2845 20.4897 19.3822 19.6654 20.2104Z" stroke="#2987C8" stroke-opacity="0.33" stroke-width="3.31351" mask="url(#path-1-inside-1_594_3306)"/>
<path d="M32.6976 21.9488L30.1388 19.7611C30.2599 19.0189 30.3224 18.261 30.3224 17.5032C30.3224 16.7453 30.2599 15.9874 30.1388 15.2452L32.6976 13.0575C32.8906 12.8923 33.0287 12.6723 33.0936 12.4266C33.1585 12.181 33.1471 11.9214 33.0609 11.6825L33.0257 11.5809C32.3213 9.6121 31.2665 7.78701 29.9122 6.19379L29.8419 6.11175C29.6776 5.91858 29.4587 5.77972 29.2139 5.71347C28.9691 5.64722 28.71 5.65669 28.4707 5.74063L25.2947 6.86962C24.1228 5.90861 22.8141 5.15075 21.3999 4.61946L20.7866 1.29892C20.7403 1.04907 20.6191 0.819207 20.4391 0.63988C20.2591 0.460552 20.0288 0.340245 19.7787 0.294942L19.6732 0.27541C17.638 -0.0918033 15.4972 -0.0918033 13.4619 0.27541L13.3564 0.294942C13.1064 0.340245 12.876 0.460552 12.696 0.63988C12.516 0.819207 12.3948 1.04907 12.3485 1.29892L11.7313 4.63509C10.3284 5.16648 9.02199 5.92395 7.86384 6.87743L4.66439 5.74063C4.42518 5.65603 4.16589 5.64621 3.92096 5.7125C3.67604 5.77879 3.45709 5.91804 3.29321 6.11175L3.22289 6.19379C1.87024 7.78813 0.815596 9.61292 0.109391 11.5809L0.0742318 11.6825C-0.101562 12.1708 0.0429797 12.7177 0.437538 13.0575L3.02756 15.2686C2.90646 16.0031 2.84786 16.7531 2.84786 17.4993C2.84786 18.2493 2.90646 18.9994 3.02756 19.7299L0.437538 21.941C0.244539 22.1062 0.106408 22.3263 0.0415107 22.5719C-0.0233863 22.8175 -0.0119735 23.0771 0.0742318 23.3161L0.109391 23.4176C0.816471 25.3865 1.86342 27.2031 3.22289 28.8047L3.29321 28.8868C3.45749 29.0799 3.67645 29.2188 3.92123 29.285C4.166 29.3513 4.42511 29.3418 4.66439 29.2579L7.86384 28.1211C9.02798 29.0782 10.3288 29.8361 11.7313 30.3634L12.3485 33.6996C12.3948 33.9495 12.516 34.1793 12.696 34.3586C12.876 34.538 13.1064 34.6583 13.3564 34.7036L13.4619 34.7231C15.5159 35.0923 17.6192 35.0923 19.6732 34.7231L19.7787 34.7036C20.0288 34.6583 20.2591 34.538 20.4391 34.3586C20.6191 34.1793 20.7403 33.9495 20.7866 33.6996L21.3999 30.3791C22.8135 29.8492 24.1296 29.0888 25.2947 28.1289L28.4707 29.2579C28.7099 29.3425 28.9692 29.3523 29.2142 29.286C29.4591 29.2197 29.678 29.0805 29.8419 28.8868L29.9122 28.8047C31.2717 27.1992 32.3187 25.3865 33.0257 23.4176L33.0609 23.3161C33.2367 22.8356 33.0921 22.2887 32.6976 21.9488ZM27.3652 15.7062C27.4629 16.2961 27.5136 16.9016 27.5136 17.5071C27.5136 18.1126 27.4629 18.7181 27.3652 19.308L27.1074 20.8745L30.0255 23.3708C29.5831 24.3899 29.0247 25.3547 28.3613 26.246L24.7361 24.9607L23.5095 25.9686C22.5758 26.7343 21.5367 27.3359 20.4116 27.7578L18.9232 28.3164L18.2239 32.1057C17.1206 32.2308 16.0067 32.2308 14.9034 32.1057L14.2041 28.3086L12.7275 27.7422C11.6141 27.3203 10.5789 26.7187 9.65302 25.9569L8.42637 24.9451L4.77768 26.2421C4.11357 25.3475 3.55885 24.3826 3.11351 23.3669L6.06293 20.8472L5.809 19.2845C5.71525 18.7025 5.66446 18.1009 5.66446 17.5071C5.66446 16.9094 5.71134 16.3117 5.809 15.7296L6.06293 14.167L3.11351 11.6473C3.55494 10.6277 4.11357 9.66669 4.77768 8.77209L8.42637 10.0691L9.65302 9.05727C10.5789 8.2955 11.6141 7.69389 12.7275 7.27199L14.208 6.71336L14.9073 2.91622C16.005 2.79121 17.1262 2.79121 18.2278 2.91622L18.9271 6.70554L20.4155 7.26418C21.5367 7.68608 22.5797 8.28768 23.5134 9.05336L24.74 10.0612L28.3653 8.776C29.0294 9.67059 29.5841 10.6355 30.0294 11.6512L27.1113 14.1475L27.3652 15.7062ZM16.5715 10.2409C12.7743 10.2409 9.69599 13.3193 9.69599 17.1164C9.69599 20.9136 12.7743 23.9919 16.5715 23.9919C20.3686 23.9919 23.4469 20.9136 23.4469 17.1164C23.4469 13.3193 20.3686 10.2409 16.5715 10.2409ZM19.6654 20.2104C19.2596 20.6174 18.7774 20.9401 18.2464 21.16C17.7154 21.3799 17.1462 21.4926 16.5715 21.4917C15.4034 21.4917 14.3057 21.0347 13.4775 20.2104C13.0705 19.8046 12.7478 19.3223 12.5279 18.7913C12.308 18.2604 12.1953 17.6911 12.1962 17.1164C12.1962 15.9484 12.6532 14.8506 13.4775 14.0225C14.3057 13.1943 15.4034 12.7411 16.5715 12.7411C17.7395 12.7411 18.8373 13.1943 19.6654 14.0225C20.0724 14.4283 20.3951 14.9105 20.615 15.4415C20.8349 15.9725 20.9477 16.5417 20.9468 17.1164C20.9468 18.2845 20.4897 19.3822 19.6654 20.2104Z" stroke="url(#paint2_linear_594_3306)" stroke-width="3.31351" mask="url(#path-1-inside-1_594_3306)"/>
<path d="M32.6976 21.9488L30.1388 19.7611C30.2599 19.0189 30.3224 18.261 30.3224 17.5032C30.3224 16.7453 30.2599 15.9874 30.1388 15.2452L32.6976 13.0575C32.8906 12.8923 33.0287 12.6723 33.0936 12.4266C33.1585 12.181 33.1471 11.9214 33.0609 11.6825L33.0257 11.5809C32.3213 9.6121 31.2665 7.78701 29.9122 6.19379L29.8419 6.11175C29.6776 5.91858 29.4587 5.77972 29.2139 5.71347C28.9691 5.64722 28.71 5.65669 28.4707 5.74063L25.2947 6.86962C24.1228 5.90861 22.8141 5.15075 21.3999 4.61946L20.7866 1.29892C20.7403 1.04907 20.6191 0.819207 20.4391 0.63988C20.2591 0.460552 20.0288 0.340245 19.7787 0.294942L19.6732 0.27541C17.638 -0.0918033 15.4972 -0.0918033 13.4619 0.27541L13.3564 0.294942C13.1064 0.340245 12.876 0.460552 12.696 0.63988C12.516 0.819207 12.3948 1.04907 12.3485 1.29892L11.7313 4.63509C10.3284 5.16648 9.02199 5.92395 7.86384 6.87743L4.66439 5.74063C4.42518 5.65603 4.16589 5.64621 3.92096 5.7125C3.67604 5.77879 3.45709 5.91804 3.29321 6.11175L3.22289 6.19379C1.87024 7.78813 0.815596 9.61292 0.109391 11.5809L0.0742318 11.6825C-0.101562 12.1708 0.0429797 12.7177 0.437538 13.0575L3.02756 15.2686C2.90646 16.0031 2.84786 16.7531 2.84786 17.4993C2.84786 18.2493 2.90646 18.9994 3.02756 19.7299L0.437538 21.941C0.244539 22.1062 0.106408 22.3263 0.0415107 22.5719C-0.0233863 22.8175 -0.0119735 23.0771 0.0742318 23.3161L0.109391 23.4176C0.816471 25.3865 1.86342 27.2031 3.22289 28.8047L3.29321 28.8868C3.45749 29.0799 3.67645 29.2188 3.92123 29.285C4.166 29.3513 4.42511 29.3418 4.66439 29.2579L7.86384 28.1211C9.02798 29.0782 10.3288 29.8361 11.7313 30.3634L12.3485 33.6996C12.3948 33.9495 12.516 34.1793 12.696 34.3586C12.876 34.538 13.1064 34.6583 13.3564 34.7036L13.4619 34.7231C15.5159 35.0923 17.6192 35.0923 19.6732 34.7231L19.7787 34.7036C20.0288 34.6583 20.2591 34.538 20.4391 34.3586C20.6191 34.1793 20.7403 33.9495 20.7866 33.6996L21.3999 30.3791C22.8135 29.8492 24.1296 29.0888 25.2947 28.1289L28.4707 29.2579C28.7099 29.3425 28.9692 29.3523 29.2142 29.286C29.4591 29.2197 29.678 29.0805 29.8419 28.8868L29.9122 28.8047C31.2717 27.1992 32.3187 25.3865 33.0257 23.4176L33.0609 23.3161C33.2367 22.8356 33.0921 22.2887 32.6976 21.9488ZM27.3652 15.7062C27.4629 16.2961 27.5136 16.9016 27.5136 17.5071C27.5136 18.1126 27.4629 18.7181 27.3652 19.308L27.1074 20.8745L30.0255 23.3708C29.5831 24.3899 29.0247 25.3547 28.3613 26.246L24.7361 24.9607L23.5095 25.9686C22.5758 26.7343 21.5367 27.3359 20.4116 27.7578L18.9232 28.3164L18.2239 32.1057C17.1206 32.2308 16.0067 32.2308 14.9034 32.1057L14.2041 28.3086L12.7275 27.7422C11.6141 27.3203 10.5789 26.7187 9.65302 25.9569L8.42637 24.9451L4.77768 26.2421C4.11357 25.3475 3.55885 24.3826 3.11351 23.3669L6.06293 20.8472L5.809 19.2845C5.71525 18.7025 5.66446 18.1009 5.66446 17.5071C5.66446 16.9094 5.71134 16.3117 5.809 15.7296L6.06293 14.167L3.11351 11.6473C3.55494 10.6277 4.11357 9.66669 4.77768 8.77209L8.42637 10.0691L9.65302 9.05727C10.5789 8.2955 11.6141 7.69389 12.7275 7.27199L14.208 6.71336L14.9073 2.91622C16.005 2.79121 17.1262 2.79121 18.2278 2.91622L18.9271 6.70554L20.4155 7.26418C21.5367 7.68608 22.5797 8.28768 23.5134 9.05336L24.74 10.0612L28.3653 8.776C29.0294 9.67059 29.5841 10.6355 30.0294 11.6512L27.1113 14.1475L27.3652 15.7062ZM16.5715 10.2409C12.7743 10.2409 9.69599 13.3193 9.69599 17.1164C9.69599 20.9136 12.7743 23.9919 16.5715 23.9919C20.3686 23.9919 23.4469 20.9136 23.4469 17.1164C23.4469 13.3193 20.3686 10.2409 16.5715 10.2409ZM19.6654 20.2104C19.2596 20.6174 18.7774 20.9401 18.2464 21.16C17.7154 21.3799 17.1462 21.4926 16.5715 21.4917C15.4034 21.4917 14.3057 21.0347 13.4775 20.2104C13.0705 19.8046 12.7478 19.3223 12.5279 18.7913C12.308 18.2604 12.1953 17.6911 12.1962 17.1164C12.1962 15.9484 12.6532 14.8506 13.4775 14.0225C14.3057 13.1943 15.4034 12.7411 16.5715 12.7411C17.7395 12.7411 18.8373 13.1943 19.6654 14.0225C20.0724 14.4283 20.3951 14.9105 20.615 15.4415C20.8349 15.9725 20.9477 16.5417 20.9468 17.1164C20.9468 18.2845 20.4897 19.3822 19.6654 20.2104Z" stroke="url(#paint3_linear_594_3306)" stroke-width="3.31351" mask="url(#path-1-inside-1_594_3306)"/>
<defs>
<linearGradient id="paint0_linear_594_3306" x1="28.2521" y1="-3.57954e-06" x2="4.68571" y2="17.2463" gradientUnits="userSpaceOnUse">
<stop stop-color="#EBEBEB" stop-opacity="0.25"/>
<stop offset="1" stop-color="#BCBCBC" stop-opacity="0.12"/>
</linearGradient>
<linearGradient id="paint1_linear_594_3306" x1="30.8929" y1="4.05796e-06" x2="-1.97666" y2="20.4554" gradientUnits="userSpaceOnUse">
<stop stop-color="#2987C8" stop-opacity="0.22"/>
<stop offset="1" stop-color="#2987C8" stop-opacity="0.02"/>
</linearGradient>
<linearGradient id="paint2_linear_594_3306" x1="28.2521" y1="-3.57954e-06" x2="4.68571" y2="17.2463" gradientUnits="userSpaceOnUse">
<stop stop-color="#EBEBEB" stop-opacity="0.25"/>
<stop offset="1" stop-color="#BCBCBC" stop-opacity="0.12"/>
</linearGradient>
<linearGradient id="paint3_linear_594_3306" x1="30.8929" y1="4.05796e-06" x2="-1.97666" y2="20.4554" gradientUnits="userSpaceOnUse">
<stop stop-color="#2987C8" stop-opacity="0.22"/>
<stop offset="1" stop-color="#2987C8" stop-opacity="0.02"/>
</linearGradient>
</defs>
</svg>
